<svg width="80" height="80" viewBox="0 0 80 80" fill="none" xmlns="http://www.w3.org/2000/svg">
<g clip-path="url(#clip0_23_2821)">
<path d="M80 0H0V80H80V0Z" fill="#FFA500"/>
<mask id="mask0_23_2821" style="mask-type:luminance" maskUnits="userSpaceOnUse" x="5" y="5" width="69" height="69">
<path d="M73.9999 5.99927H5.99927V73.9999H73.9999V5.99927Z" fill="white"/>
</mask>
<g mask="url(#mask0_23_2821)">
<path d="M9.99926 33.0574C7.79012 33.0574 5.99927 34.8482 5.99927 37.0574V63.0577C5.99927 65.2668 7.79013 67.0577 9.99927 67.0577H69.9999C72.209 67.0577 73.9999 65.2668 73.9999 63.0577V37.0574C73.9999 34.8482 72.209 33.0574 69.9999 33.0574H9.99926ZM70.5999 59.6577C70.5999 61.8668 68.809 63.6577 66.5999 63.6577H13.3993C11.1902 63.6577 9.3993 61.8668 9.3993 59.6577V40.4574C9.3993 38.2483 11.1902 36.4574 13.3993 36.4574H66.5999C68.809 36.4574 70.5999 38.2483 70.5999 40.4574V59.6577Z" fill="white"/>
<path d="M34.1995 50.0575C34.1995 47.4104 34.9164 45.0595 36.0231 43.3995C37.1344 41.7325 38.56 40.8574 39.9995 40.8574C41.4391 40.8574 42.8646 41.7325 43.9759 43.3995C45.0826 45.0595 45.7996 47.4104 45.7996 50.0575C45.7996 52.7046 45.0826 55.0556 43.9759 56.7155C42.8646 58.3825 41.4391 59.2576 39.9995 59.2576C38.56 59.2576 37.1344 58.3825 36.0231 56.7156C34.9164 55.0556 34.1995 52.7046 34.1995 50.0575ZM35.5995 50.0575C35.5995 52.2896 36.1403 54.164 36.9121 55.5111C37.2969 56.1827 37.7527 56.7464 38.2512 57.1534C38.7382 57.551 39.3413 57.8576 39.9995 57.8576C40.6578 57.8576 41.2609 57.551 41.7479 57.1534C42.2465 56.7464 42.7022 56.1827 43.087 55.511C43.8588 54.164 44.3996 52.2896 44.3996 50.0575C44.3996 47.8255 43.8588 45.9511 43.087 44.6041C42.7022 43.9324 42.2465 43.3687 41.748 42.9617C41.2609 42.5641 40.6578 42.2574 39.9995 42.2574C39.3412 42.2574 38.7382 42.5641 38.2512 42.9617C37.7526 43.3687 37.2969 43.9324 36.9121 44.604C36.1403 45.9511 35.5995 47.8255 35.5995 50.0575Z" fill="white" stroke="#FEFEFE" stroke-width="2"/>
<path d="M17.1992 50.0578C17.1992 47.7938 19.0353 45.9578 21.2993 45.9578C23.5633 45.9578 25.3993 47.7938 25.3993 50.0578C25.3993 52.3218 23.5633 54.1579 21.2993 54.1579C19.0353 54.1579 17.1992 52.3218 17.1992 50.0578ZM18.5993 50.0578C18.5993 51.5474 19.8096 52.7578 21.2993 52.7578C22.7889 52.7578 23.9993 51.5474 23.9993 50.0578C23.9993 48.5684 22.789 47.3578 21.2993 47.3578C19.8096 47.3578 18.5993 48.5684 18.5993 50.0578Z" fill="white" stroke="#FEFEFE" stroke-width="2"/>
<path d="M54.5996 50.0578C54.5996 47.7938 56.4356 45.9578 58.6997 45.9578C60.9637 45.9578 62.7997 47.7938 62.7997 50.0578C62.7997 52.3218 60.9637 54.1579 58.6997 54.1579C56.4356 54.1579 54.5996 52.3218 54.5996 50.0578ZM55.9996 50.0578C55.9996 51.5474 57.21 52.7578 58.6997 52.7578C60.1893 52.7578 61.3997 51.5474 61.3997 50.0578C61.3997 48.5684 60.1893 47.3578 58.6997 47.3578C57.21 47.3578 55.9996 48.5684 55.9996 50.0578Z" fill="white" stroke="#FEFEFE" stroke-width="2"/>
<path d="M39.0651 27.6063L57.6551 18.9376C59.1567 18.2374 60.9416 18.887 61.6418 20.3886L65.1657 27.9452C65.3821 28.4092 65.0433 28.9409 64.5314 28.9409C64.2594 28.9409 64.012 28.7834 63.897 28.5369L61.8101 24.0618C60.643 21.5593 57.6682 20.4766 55.1655 21.6436L39.6568 28.8753C39.5642 28.9186 39.4632 28.9409 39.361 28.9409C38.6117 28.9409 38.386 27.9229 39.0651 27.6063Z" fill="white" stroke="#FEFEFE" stroke-width="2"/>
<path d="M25.7424 27.7048L39.7579 15.9442C40.8074 15.0635 42.372 15.2004 43.2527 16.2497L44.7442 18.027C45.0402 18.3797 44.9211 18.9171 44.5039 19.1118C44.2166 19.2458 43.8752 19.1701 43.6715 18.9274L43.4758 18.6943C42.3763 17.3845 40.4232 17.2139 39.1132 18.3131L26.6423 28.7773C26.5162 28.8831 26.3569 28.9411 26.1924 28.9411C25.5388 28.9411 25.2418 28.1249 25.7424 27.7048Z" fill="white" stroke="#FEFEFE" stroke-width="2"/>
</g>
</g>
<defs>
<clipPath id="clip0_23_2821">
<rect width="80" height="80" fill="white"/>
</clipPath>
</defs>
</svg>
