<svg width="80" height="80" viewBox="0 0 80 80" fill="none" xmlns="http://www.w3.org/2000/svg">
<g clip-path="url(#clip0_23_2812)">
<path d="M80 0H0V80H80V0Z" fill="#FFA500"/>
<mask id="mask0_23_2812" style="mask-type:luminance" maskUnits="userSpaceOnUse" x="5" y="5" width="69" height="69">
<path d="M74.0001 5.99951H5.99951V74.0001H74.0001V5.99951Z" fill="white"/>
</mask>
<g mask="url(#mask0_23_2812)">
<path d="M38.7051 70.6C38.5035 70.6 38.3002 70.5668 38.1062 70.5022C23.7492 65.7172 14.1016 52.3324 14.1016 37.1973V15.4632C14.1016 14.4171 14.948 13.5706 15.994 13.5706C23.0488 13.5706 29.8779 11.5024 35.748 7.58982L37.6553 6.31832C38.291 5.89324 39.1191 5.89324 39.7548 6.31832L41.6622 7.58982C47.5321 11.5025 54.3612 13.5706 61.4159 13.5706C62.4621 13.5706 63.3086 14.4171 63.3086 15.4632V37.1973C63.3086 52.3324 53.6609 65.7172 39.3039 70.5022C39.1098 70.5669 38.9063 70.6 38.7051 70.6Z" fill="white"/>
<path d="M38.7047 55.4593C29.3121 55.4593 21.6716 47.8188 21.6716 38.4262C21.6716 29.0335 29.3121 21.3931 38.7047 21.3931C48.0974 21.3931 55.7378 29.0335 55.7378 38.4262C55.7378 47.8188 48.0974 55.4593 38.7047 55.4593Z" fill="#FFA500"/>
<path d="M36.8122 45.9963C36.328 45.9963 35.8437 45.8115 35.4742 45.4419L31.689 41.6567C30.9497 40.9174 30.9497 39.7197 31.689 38.9805C32.4282 38.2413 33.6259 38.2413 34.3653 38.9805L36.8124 41.4276L43.0445 35.1954C43.7837 34.456 44.9816 34.456 45.7208 35.1954C46.46 35.9346 46.46 37.1323 45.7208 37.8716L38.1506 45.4419C37.7806 45.8115 37.2964 45.9963 36.8122 45.9963Z" fill="white"/>
</g>
</g>
<defs>
<clipPath id="clip0_23_2812">
<rect width="80" height="80" fill="white"/>
</clipPath>
</defs>
</svg>
