<svg width="80" height="80" viewBox="0 0 80 80" fill="none" xmlns="http://www.w3.org/2000/svg">
<g clip-path="url(#clip0_23_2833)">
<path d="M80 0H0V80H80V0Z" fill="#FFA500"/>
<path d="M33.7285 68C32.0001 68 30.3655 67.1856 29.3147 65.7887L15.1227 46.911C13.2768 44.4558 13.7574 40.9598 16.1948 39.0997C18.6365 37.239 22.105 37.7262 23.9518 40.1798L33.2859 52.5943L56.7622 14.6275C58.3786 12.0157 61.7915 11.2164 64.3904 12.842C66.9861 14.4692 67.7787 17.9092 66.1616 20.5236L38.4288 65.3719C37.4655 66.9311 35.8023 67.9119 33.9809 67.9951C33.896 67.9983 33.8126 68 33.7285 68Z" fill="white"/>
</g>
<defs>
<clipPath id="clip0_23_2833">
<rect width="80" height="80" fill="white"/>
</clipPath>
</defs>
</svg>
