<svg width="80" height="80" viewBox="0 0 80 80" fill="none" xmlns="http://www.w3.org/2000/svg">
<g clip-path="url(#clip0_23_2836)">
<path d="M80 0H0V80H80V0Z" fill="#FFA500"/>
<mask id="path-2-outside-1_23_2836" maskUnits="userSpaceOnUse" x="13.7178" y="11.8" width="56" height="60" fill="black">
<rect fill="white" x="13.7178" y="11.8" width="56" height="60"/>
<path d="M47.9463 62.3944C46.711 63.5504 43.4481 66.179 41.6515 66.45C39.9349 66.7088 35.1053 62.5211 33.9984 61.4628L32.7124 60.1901C32.3705 59.8443 32.0312 59.4772 31.6282 59.195C30.6452 59.2843 29.6739 59.5379 28.7324 59.8148L26.0818 60.6721C21.8761 62.1504 17.8023 64.1133 16.8982 68.6667L16.7589 69.6265C16.5362 70.9701 14.9339 70.8353 14.7448 69.7577C14.5098 68.4192 15.865 65.3126 16.6245 64.2829C18.9889 61.0772 24.0108 59.0946 27.9114 58.025L29.7411 57.573C30.358 57.4441 31.0794 57.3871 31.6524 57.1341C33.2286 56.4381 33.91 54.2939 34.2387 52.8272C34.7413 50.5849 32.8192 52.2994 31.5419 50.9433C31.1017 50.4759 31.2871 50.5226 30.6193 50.5373L29.1614 50.5682C28.8757 50.5736 28.5787 50.5946 28.2947 50.5663C25.1516 50.2537 23.6037 47.1901 23.4655 44.4583L23.3936 44.4378C21.8063 44.0736 20.8313 42.0484 20.6548 40.6483C20.5139 39.5311 20.5519 36.7124 20.7174 35.6755C20.9463 34.2413 22.1423 32.7023 23.6032 32.2628C24.108 32.1109 23.9039 32.0042 23.899 31.5122C23.8861 30.1854 23.8856 28.9371 24.1318 27.6284C25.5601 20.0383 32.1475 13.2411 40.5039 12.8218L41.0472 12.8049C41.7571 12.8015 42.483 12.7822 43.189 12.8553C51.9965 13.7683 58.2733 21.1526 59.0693 29.3137C59.1605 30.2484 59.1138 31.2187 59.1168 32.1584C59.2603 32.2227 59.4142 32.2402 59.5635 32.2881C60.6594 32.6393 61.6448 33.8281 62.0352 34.8103C62.2842 35.4369 62.3296 36.1282 62.3488 36.7905L62.3636 38.7154C62.3624 40.3425 62.3246 42.2079 61.0646 43.4631C60.2804 44.2444 58.9177 44.8498 57.7589 44.8706C57.2076 44.8804 56.6572 44.6545 56.1541 44.46C54.8482 43.9552 55.1713 43.4915 55.3621 42.3745L55.7995 38.8851L55.8208 35.6681C55.5801 35.8476 55.2159 35.8553 54.9457 36.0324C55.3816 41.9083 52.9873 48.4774 49.2223 53.0729C48.925 53.4359 49.0714 53.535 49.1529 53.9708C49.5653 56.1761 50.5209 57.0253 52.6773 57.4461L54.2455 57.7866C55.3877 58.0868 56.5052 58.4696 57.615 58.8633C62.7304 60.6779 66.9706 62.9395 68.0885 68.3804C68.1765 68.8089 68.2897 69.2873 68.2571 69.725C68.1814 70.7425 66.7268 70.8933 66.3304 69.9844C66.166 69.6072 66.184 69.0965 66.1102 68.6908C65.2637 64.0359 60.8559 62.016 56.607 60.5547C54.8227 59.9411 53.0995 59.4314 51.2173 59.2025C50.8837 59.4531 50.5756 59.8361 50.2766 60.1316L47.9463 62.3944ZM41.252 14.7277C32.7142 14.7217 25.9431 22.6862 25.9402 30.525C25.9401 30.9075 25.8397 31.7506 26.1358 32.028C26.3775 32.2545 27.2387 32.06 27.4795 31.819C27.5874 31.7109 27.545 31.0253 27.5483 30.8471C27.6735 23.9023 32.993 18.6654 40.1402 18.194L41.8901 18.1686C44.079 18.2097 46.3563 18.6262 48.3203 19.5751C52.4354 21.5633 55.1692 25.9269 55.4003 30.294L55.4313 31.3411C55.4383 31.4637 55.438 31.6133 55.5234 31.7094L55.5497 31.7409C55.7337 31.957 56.0417 32.1077 56.3322 32.1349C57.1016 32.2071 57.11 31.85 57.1079 31.1962L57.0047 29.0968C56.8762 28.3293 56.7682 27.5823 56.5642 26.8259C54.988 20.9842 50.2749 16.0869 43.9736 14.9344C43.0995 14.7745 42.1446 14.6701 41.252 14.7277ZM40.7929 20.1249C37.2105 20.2373 34.0109 21.5979 31.8366 24.4149C30.8581 25.6829 29.7397 28.3509 29.633 30.0044C30.2357 29.6831 30.7843 29.2971 31.4057 28.9996C35.0405 27.259 38.3409 26.8851 42.2793 26.8917C46.1819 26.9348 50.1222 27.9536 53.3693 30.0409C52.3718 23.434 47.6721 19.8931 40.7929 20.1249ZM41.1943 28.8806C36.3629 28.8482 32.4682 30.0862 28.9116 33.1248L27.9361 33.9641C29.2265 34.3644 31.5876 35.0175 32.9473 34.6054L33.8355 34.3575C36.8687 33.384 38.5215 32.9371 41.8753 32.9452C43.8811 32.9484 45.8778 33.2723 47.7867 33.8646L49.237 34.361C51.3964 35.133 52.8375 34.6712 54.997 33.9932L55.0115 33.9746C54.3644 33.4238 53.7776 32.8166 53.0993 32.2975C49.9023 29.8502 45.86 28.8994 41.8316 28.8727C41.6511 28.8716 41.397 28.8379 41.2234 28.8706L41.1943 28.8806ZM24.9601 33.9164C22.3306 34.4845 22.638 36.4031 22.641 38.4629C22.643 39.8296 22.472 41.5226 23.7836 42.4307C23.946 42.5211 24.0885 42.5798 24.2682 42.6354L24.3186 42.6522C24.6611 42.7599 25.1244 42.7235 25.4889 42.7323C25.3896 41.6738 25.1459 40.63 25.0577 39.5687L24.9614 35.398C24.9883 34.9035 25.1037 34.419 25.1315 33.9265C25.0638 33.8959 25.0331 33.9097 24.9601 33.9164ZM57.78 33.9963C57.9523 35.7646 57.9654 37.9786 57.7997 39.7485L57.4557 42.7412C58.1856 42.799 58.7946 42.7336 59.3948 42.3164C60.1238 41.7099 60.238 40.9548 60.3009 40.0792L60.3433 38.0226C60.3419 36.3061 60.4195 34.1151 57.9354 34.0006L57.78 33.9963ZM41.0841 34.8929C39.6177 34.9516 38.1733 35.1228 36.7522 35.484C34.1411 36.1478 32.8672 36.9537 30.0379 36.6225L30.0635 38.6556C30.2605 41.7956 31.2476 44.9317 32.4363 47.8444L32.9524 49.0927C33.0169 49.2536 33.0664 49.4882 33.1661 49.6264C33.3601 49.6408 34.9351 49.8679 34.9733 49.8584C35.5019 48.7287 36.3277 47.9523 37.6988 48.5663L38.7916 49.1002C39.5412 49.4397 40.4648 49.7212 41.1132 50.213C42.8287 51.5141 41.0072 55.5444 37.1763 53.6104L36.5039 53.2365L36.164 53.0612C36.1926 53.3074 36.3219 53.4461 36.5174 53.5976C38.0547 54.789 40.6498 55.0928 42.5335 54.8598L42.6527 54.8366C45.4172 54.2527 45.9948 53.971 47.8345 51.6171L49.0284 50.0075C51.7448 46.0334 52.9561 41.3212 52.943 36.6145L52.9113 36.6225C51.1236 37.049 49.2233 36.4438 47.5709 35.8627C45.4821 35.1283 43.3072 34.8617 41.0841 34.8929ZM26.9372 35.5139C27.0796 36.9515 26.9783 38.3123 27.1343 39.8029L27.4539 42.0583C27.6397 43.1693 28.1502 44.567 26.3756 44.6333L25.5138 44.6183C25.6783 46.3436 26.4161 48.2349 28.4387 48.5111C29.09 48.6583 29.8716 48.6267 30.5371 48.6075L30.5074 48.5634C30.4271 48.4364 30.4161 48.2509 30.367 48.1089L30.007 47.146C28.7905 43.882 28.0419 41.0562 28.044 37.605L28.0484 36.1561C28.0497 36.1114 28.0721 36.0529 28.0265 36.0346L26.9372 35.5139ZM36.9972 50.3678C36.8679 50.6031 36.7436 50.8416 36.7194 51.1103C36.8721 51.5362 38.7763 52.3685 39.3329 52.1869L39.418 52.1571C39.5902 52.0391 39.6654 51.9255 39.7666 51.7527C39.4317 51.5059 37.4533 50.5198 36.9972 50.3678ZM35.5104 55.3049C35.1071 56.4651 34.4768 57.3209 33.5466 58.148C35.8117 60.5013 38.4128 63.1498 41.5001 64.5334C43.0762 63.7891 44.6555 62.6215 45.9517 61.5129L49.324 58.2006C49.2915 58.1269 49.1999 58.0712 49.1382 58.0173C48.3414 57.3243 47.7531 56.3185 47.4445 55.3445C44.2959 56.8695 41.0748 57.3573 37.6996 56.3025C36.9348 56.0636 36.1659 55.7585 35.5104 55.3049Z"/>
</mask>
<path d="M47.9463 62.3944C46.711 63.5504 43.4481 66.179 41.6515 66.45C39.9349 66.7088 35.1053 62.5211 33.9984 61.4628L32.7124 60.1901C32.3705 59.8443 32.0312 59.4772 31.6282 59.195C30.6452 59.2843 29.6739 59.5379 28.7324 59.8148L26.0818 60.6721C21.8761 62.1504 17.8023 64.1133 16.8982 68.6667L16.7589 69.6265C16.5362 70.9701 14.9339 70.8353 14.7448 69.7577C14.5098 68.4192 15.865 65.3126 16.6245 64.2829C18.9889 61.0772 24.0108 59.0946 27.9114 58.025L29.7411 57.573C30.358 57.4441 31.0794 57.3871 31.6524 57.1341C33.2286 56.4381 33.91 54.2939 34.2387 52.8272C34.7413 50.5849 32.8192 52.2994 31.5419 50.9433C31.1017 50.4759 31.2871 50.5226 30.6193 50.5373L29.1614 50.5682C28.8757 50.5736 28.5787 50.5946 28.2947 50.5663C25.1516 50.2537 23.6037 47.1901 23.4655 44.4583L23.3936 44.4378C21.8063 44.0736 20.8313 42.0484 20.6548 40.6483C20.5139 39.5311 20.5519 36.7124 20.7174 35.6755C20.9463 34.2413 22.1423 32.7023 23.6032 32.2628C24.108 32.1109 23.9039 32.0042 23.899 31.5122C23.8861 30.1854 23.8856 28.9371 24.1318 27.6284C25.5601 20.0383 32.1475 13.2411 40.5039 12.8218L41.0472 12.8049C41.7571 12.8015 42.483 12.7822 43.189 12.8553C51.9965 13.7683 58.2733 21.1526 59.0693 29.3137C59.1605 30.2484 59.1138 31.2187 59.1168 32.1584C59.2603 32.2227 59.4142 32.2402 59.5635 32.2881C60.6594 32.6393 61.6448 33.8281 62.0352 34.8103C62.2842 35.4369 62.3296 36.1282 62.3488 36.7905L62.3636 38.7154C62.3624 40.3425 62.3246 42.2079 61.0646 43.4631C60.2804 44.2444 58.9177 44.8498 57.7589 44.8706C57.2076 44.8804 56.6572 44.6545 56.1541 44.46C54.8482 43.9552 55.1713 43.4915 55.3621 42.3745L55.7995 38.8851L55.8208 35.6681C55.5801 35.8476 55.2159 35.8553 54.9457 36.0324C55.3816 41.9083 52.9873 48.4774 49.2223 53.0729C48.925 53.4359 49.0714 53.535 49.1529 53.9708C49.5653 56.1761 50.5209 57.0253 52.6773 57.4461L54.2455 57.7866C55.3877 58.0868 56.5052 58.4696 57.615 58.8633C62.7304 60.6779 66.9706 62.9395 68.0885 68.3804C68.1765 68.8089 68.2897 69.2873 68.2571 69.725C68.1814 70.7425 66.7268 70.8933 66.3304 69.9844C66.166 69.6072 66.184 69.0965 66.1102 68.6908C65.2637 64.0359 60.8559 62.016 56.607 60.5547C54.8227 59.9411 53.0995 59.4314 51.2173 59.2025C50.8837 59.4531 50.5756 59.8361 50.2766 60.1316L47.9463 62.3944ZM41.252 14.7277C32.7142 14.7217 25.9431 22.6862 25.9402 30.525C25.9401 30.9075 25.8397 31.7506 26.1358 32.028C26.3775 32.2545 27.2387 32.06 27.4795 31.819C27.5874 31.7109 27.545 31.0253 27.5483 30.8471C27.6735 23.9023 32.993 18.6654 40.1402 18.194L41.8901 18.1686C44.079 18.2097 46.3563 18.6262 48.3203 19.5751C52.4354 21.5633 55.1692 25.9269 55.4003 30.294L55.4313 31.3411C55.4383 31.4637 55.438 31.6133 55.5234 31.7094L55.5497 31.7409C55.7337 31.957 56.0417 32.1077 56.3322 32.1349C57.1016 32.2071 57.11 31.85 57.1079 31.1962L57.0047 29.0968C56.8762 28.3293 56.7682 27.5823 56.5642 26.8259C54.988 20.9842 50.2749 16.0869 43.9736 14.9344C43.0995 14.7745 42.1446 14.6701 41.252 14.7277ZM40.7929 20.1249C37.2105 20.2373 34.0109 21.5979 31.8366 24.4149C30.8581 25.6829 29.7397 28.3509 29.633 30.0044C30.2357 29.6831 30.7843 29.2971 31.4057 28.9996C35.0405 27.259 38.3409 26.8851 42.2793 26.8917C46.1819 26.9348 50.1222 27.9536 53.3693 30.0409C52.3718 23.434 47.6721 19.8931 40.7929 20.1249ZM41.1943 28.8806C36.3629 28.8482 32.4682 30.0862 28.9116 33.1248L27.9361 33.9641C29.2265 34.3644 31.5876 35.0175 32.9473 34.6054L33.8355 34.3575C36.8687 33.384 38.5215 32.9371 41.8753 32.9452C43.8811 32.9484 45.8778 33.2723 47.7867 33.8646L49.237 34.361C51.3964 35.133 52.8375 34.6712 54.997 33.9932L55.0115 33.9746C54.3644 33.4238 53.7776 32.8166 53.0993 32.2975C49.9023 29.8502 45.86 28.8994 41.8316 28.8727C41.6511 28.8716 41.397 28.8379 41.2234 28.8706L41.1943 28.8806ZM24.9601 33.9164C22.3306 34.4845 22.638 36.4031 22.641 38.4629C22.643 39.8296 22.472 41.5226 23.7836 42.4307C23.946 42.5211 24.0885 42.5798 24.2682 42.6354L24.3186 42.6522C24.6611 42.7599 25.1244 42.7235 25.4889 42.7323C25.3896 41.6738 25.1459 40.63 25.0577 39.5687L24.9614 35.398C24.9883 34.9035 25.1037 34.419 25.1315 33.9265C25.0638 33.8959 25.0331 33.9097 24.9601 33.9164ZM57.78 33.9963C57.9523 35.7646 57.9654 37.9786 57.7997 39.7485L57.4557 42.7412C58.1856 42.799 58.7946 42.7336 59.3948 42.3164C60.1238 41.7099 60.238 40.9548 60.3009 40.0792L60.3433 38.0226C60.3419 36.3061 60.4195 34.1151 57.9354 34.0006L57.78 33.9963ZM41.0841 34.8929C39.6177 34.9516 38.1733 35.1228 36.7522 35.484C34.1411 36.1478 32.8672 36.9537 30.0379 36.6225L30.0635 38.6556C30.2605 41.7956 31.2476 44.9317 32.4363 47.8444L32.9524 49.0927C33.0169 49.2536 33.0664 49.4882 33.1661 49.6264C33.3601 49.6408 34.9351 49.8679 34.9733 49.8584C35.5019 48.7287 36.3277 47.9523 37.6988 48.5663L38.7916 49.1002C39.5412 49.4397 40.4648 49.7212 41.1132 50.213C42.8287 51.5141 41.0072 55.5444 37.1763 53.6104L36.5039 53.2365L36.164 53.0612C36.1926 53.3074 36.3219 53.4461 36.5174 53.5976C38.0547 54.789 40.6498 55.0928 42.5335 54.8598L42.6527 54.8366C45.4172 54.2527 45.9948 53.971 47.8345 51.6171L49.0284 50.0075C51.7448 46.0334 52.9561 41.3212 52.943 36.6145L52.9113 36.6225C51.1236 37.049 49.2233 36.4438 47.5709 35.8627C45.4821 35.1283 43.3072 34.8617 41.0841 34.8929ZM26.9372 35.5139C27.0796 36.9515 26.9783 38.3123 27.1343 39.8029L27.4539 42.0583C27.6397 43.1693 28.1502 44.567 26.3756 44.6333L25.5138 44.6183C25.6783 46.3436 26.4161 48.2349 28.4387 48.5111C29.09 48.6583 29.8716 48.6267 30.5371 48.6075L30.5074 48.5634C30.4271 48.4364 30.4161 48.2509 30.367 48.1089L30.007 47.146C28.7905 43.882 28.0419 41.0562 28.044 37.605L28.0484 36.1561C28.0497 36.1114 28.0721 36.0529 28.0265 36.0346L26.9372 35.5139ZM36.9972 50.3678C36.8679 50.6031 36.7436 50.8416 36.7194 51.1103C36.8721 51.5362 38.7763 52.3685 39.3329 52.1869L39.418 52.1571C39.5902 52.0391 39.6654 51.9255 39.7666 51.7527C39.4317 51.5059 37.4533 50.5198 36.9972 50.3678ZM35.5104 55.3049C35.1071 56.4651 34.4768 57.3209 33.5466 58.148C35.8117 60.5013 38.4128 63.1498 41.5001 64.5334C43.0762 63.7891 44.6555 62.6215 45.9517 61.5129L49.324 58.2006C49.2915 58.1269 49.1999 58.0712 49.1382 58.0173C48.3414 57.3243 47.7531 56.3185 47.4445 55.3445C44.2959 56.8695 41.0748 57.3573 37.6996 56.3025C36.9348 56.0636 36.1659 55.7585 35.5104 55.3049Z" fill="#FEFEFE"/>
<path d="M47.9463 62.3944C46.711 63.5504 43.4481 66.179 41.6515 66.45C39.9349 66.7088 35.1053 62.5211 33.9984 61.4628L32.7124 60.1901C32.3705 59.8443 32.0312 59.4772 31.6282 59.195C30.6452 59.2843 29.6739 59.5379 28.7324 59.8148L26.0818 60.6721C21.8761 62.1504 17.8023 64.1133 16.8982 68.6667L16.7589 69.6265C16.5362 70.9701 14.9339 70.8353 14.7448 69.7577C14.5098 68.4192 15.865 65.3126 16.6245 64.2829C18.9889 61.0772 24.0108 59.0946 27.9114 58.025L29.7411 57.573C30.358 57.4441 31.0794 57.3871 31.6524 57.1341C33.2286 56.4381 33.91 54.2939 34.2387 52.8272C34.7413 50.5849 32.8192 52.2994 31.5419 50.9433C31.1017 50.4759 31.2871 50.5226 30.6193 50.5373L29.1614 50.5682C28.8757 50.5736 28.5787 50.5946 28.2947 50.5663C25.1516 50.2537 23.6037 47.1901 23.4655 44.4583L23.3936 44.4378C21.8063 44.0736 20.8313 42.0484 20.6548 40.6483C20.5139 39.5311 20.5519 36.7124 20.7174 35.6755C20.9463 34.2413 22.1423 32.7023 23.6032 32.2628C24.108 32.1109 23.9039 32.0042 23.899 31.5122C23.8861 30.1854 23.8856 28.9371 24.1318 27.6284C25.5601 20.0383 32.1475 13.2411 40.5039 12.8218L41.0472 12.8049C41.7571 12.8015 42.483 12.7822 43.189 12.8553C51.9965 13.7683 58.2733 21.1526 59.0693 29.3137C59.1605 30.2484 59.1138 31.2187 59.1168 32.1584C59.2603 32.2227 59.4142 32.2402 59.5635 32.2881C60.6594 32.6393 61.6448 33.8281 62.0352 34.8103C62.2842 35.4369 62.3296 36.1282 62.3488 36.7905L62.3636 38.7154C62.3624 40.3425 62.3246 42.2079 61.0646 43.4631C60.2804 44.2444 58.9177 44.8498 57.7589 44.8706C57.2076 44.8804 56.6572 44.6545 56.1541 44.46C54.8482 43.9552 55.1713 43.4915 55.3621 42.3745L55.7995 38.8851L55.8208 35.6681C55.5801 35.8476 55.2159 35.8553 54.9457 36.0324C55.3816 41.9083 52.9873 48.4774 49.2223 53.0729C48.925 53.4359 49.0714 53.535 49.1529 53.9708C49.5653 56.1761 50.5209 57.0253 52.6773 57.4461L54.2455 57.7866C55.3877 58.0868 56.5052 58.4696 57.615 58.8633C62.7304 60.6779 66.9706 62.9395 68.0885 68.3804C68.1765 68.8089 68.2897 69.2873 68.2571 69.725C68.1814 70.7425 66.7268 70.8933 66.3304 69.9844C66.166 69.6072 66.184 69.0965 66.1102 68.6908C65.2637 64.0359 60.8559 62.016 56.607 60.5547C54.8227 59.9411 53.0995 59.4314 51.2173 59.2025C50.8837 59.4531 50.5756 59.8361 50.2766 60.1316L47.9463 62.3944ZM41.252 14.7277C32.7142 14.7217 25.9431 22.6862 25.9402 30.525C25.9401 30.9075 25.8397 31.7506 26.1358 32.028C26.3775 32.2545 27.2387 32.06 27.4795 31.819C27.5874 31.7109 27.545 31.0253 27.5483 30.8471C27.6735 23.9023 32.993 18.6654 40.1402 18.194L41.8901 18.1686C44.079 18.2097 46.3563 18.6262 48.3203 19.5751C52.4354 21.5633 55.1692 25.9269 55.4003 30.294L55.4313 31.3411C55.4383 31.4637 55.438 31.6133 55.5234 31.7094L55.5497 31.7409C55.7337 31.957 56.0417 32.1077 56.3322 32.1349C57.1016 32.2071 57.11 31.85 57.1079 31.1962L57.0047 29.0968C56.8762 28.3293 56.7682 27.5823 56.5642 26.8259C54.988 20.9842 50.2749 16.0869 43.9736 14.9344C43.0995 14.7745 42.1446 14.6701 41.252 14.7277ZM40.7929 20.1249C37.2105 20.2373 34.0109 21.5979 31.8366 24.4149C30.8581 25.6829 29.7397 28.3509 29.633 30.0044C30.2357 29.6831 30.7843 29.2971 31.4057 28.9996C35.0405 27.259 38.3409 26.8851 42.2793 26.8917C46.1819 26.9348 50.1222 27.9536 53.3693 30.0409C52.3718 23.434 47.6721 19.8931 40.7929 20.1249ZM41.1943 28.8806C36.3629 28.8482 32.4682 30.0862 28.9116 33.1248L27.9361 33.9641C29.2265 34.3644 31.5876 35.0175 32.9473 34.6054L33.8355 34.3575C36.8687 33.384 38.5215 32.9371 41.8753 32.9452C43.8811 32.9484 45.8778 33.2723 47.7867 33.8646L49.237 34.361C51.3964 35.133 52.8375 34.6712 54.997 33.9932L55.0115 33.9746C54.3644 33.4238 53.7776 32.8166 53.0993 32.2975C49.9023 29.8502 45.86 28.8994 41.8316 28.8727C41.6511 28.8716 41.397 28.8379 41.2234 28.8706L41.1943 28.8806ZM24.9601 33.9164C22.3306 34.4845 22.638 36.4031 22.641 38.4629C22.643 39.8296 22.472 41.5226 23.7836 42.4307C23.946 42.5211 24.0885 42.5798 24.2682 42.6354L24.3186 42.6522C24.6611 42.7599 25.1244 42.7235 25.4889 42.7323C25.3896 41.6738 25.1459 40.63 25.0577 39.5687L24.9614 35.398C24.9883 34.9035 25.1037 34.419 25.1315 33.9265C25.0638 33.8959 25.0331 33.9097 24.9601 33.9164ZM57.78 33.9963C57.9523 35.7646 57.9654 37.9786 57.7997 39.7485L57.4557 42.7412C58.1856 42.799 58.7946 42.7336 59.3948 42.3164C60.1238 41.7099 60.238 40.9548 60.3009 40.0792L60.3433 38.0226C60.3419 36.3061 60.4195 34.1151 57.9354 34.0006L57.78 33.9963ZM41.0841 34.8929C39.6177 34.9516 38.1733 35.1228 36.7522 35.484C34.1411 36.1478 32.8672 36.9537 30.0379 36.6225L30.0635 38.6556C30.2605 41.7956 31.2476 44.9317 32.4363 47.8444L32.9524 49.0927C33.0169 49.2536 33.0664 49.4882 33.1661 49.6264C33.3601 49.6408 34.9351 49.8679 34.9733 49.8584C35.5019 48.7287 36.3277 47.9523 37.6988 48.5663L38.7916 49.1002C39.5412 49.4397 40.4648 49.7212 41.1132 50.213C42.8287 51.5141 41.0072 55.5444 37.1763 53.6104L36.5039 53.2365L36.164 53.0612C36.1926 53.3074 36.3219 53.4461 36.5174 53.5976C38.0547 54.789 40.6498 55.0928 42.5335 54.8598L42.6527 54.8366C45.4172 54.2527 45.9948 53.971 47.8345 51.6171L49.0284 50.0075C51.7448 46.0334 52.9561 41.3212 52.943 36.6145L52.9113 36.6225C51.1236 37.049 49.2233 36.4438 47.5709 35.8627C45.4821 35.1283 43.3072 34.8617 41.0841 34.8929ZM26.9372 35.5139C27.0796 36.9515 26.9783 38.3123 27.1343 39.8029L27.4539 42.0583C27.6397 43.1693 28.1502 44.567 26.3756 44.6333L25.5138 44.6183C25.6783 46.3436 26.4161 48.2349 28.4387 48.5111C29.09 48.6583 29.8716 48.6267 30.5371 48.6075L30.5074 48.5634C30.4271 48.4364 30.4161 48.2509 30.367 48.1089L30.007 47.146C28.7905 43.882 28.0419 41.0562 28.044 37.605L28.0484 36.1561C28.0497 36.1114 28.0721 36.0529 28.0265 36.0346L26.9372 35.5139ZM36.9972 50.3678C36.8679 50.6031 36.7436 50.8416 36.7194 51.1103C36.8721 51.5362 38.7763 52.3685 39.3329 52.1869L39.418 52.1571C39.5902 52.0391 39.6654 51.9255 39.7666 51.7527C39.4317 51.5059 37.4533 50.5198 36.9972 50.3678ZM35.5104 55.3049C35.1071 56.4651 34.4768 57.3209 33.5466 58.148C35.8117 60.5013 38.4128 63.1498 41.5001 64.5334C43.0762 63.7891 44.6555 62.6215 45.9517 61.5129L49.324 58.2006C49.2915 58.1269 49.1999 58.0712 49.1382 58.0173C48.3414 57.3243 47.7531 56.3185 47.4445 55.3445C44.2959 56.8695 41.0748 57.3573 37.6996 56.3025C36.9348 56.0636 36.1659 55.7585 35.5104 55.3049Z" stroke="white" stroke-width="1.2" mask="url(#path-2-outside-1_23_2836)"/>
</g>
<defs>
<clipPath id="clip0_23_2836">
<rect width="80" height="80" fill="white"/>
</clipPath>
</defs>
</svg>
