<svg width="135" height="60" viewBox="0 0 135 60" fill="none" xmlns="http://www.w3.org/2000/svg">
<path d="M110.808 5.75146C104.918 2.42029 97.8359 2.74342 92.3965 6.58966C90.6189 7.8362 88.7528 9.85685 87.6608 11.7116L87.3794 12.1765L87.0117 12.2449C85.1923 12.5676 80.4705 12.9733 76.4747 13.1454C71.8065 13.3527 62.2337 13.4436 57.508 13.3317C51.1572 13.1745 46.0401 12.8844 42.4711 12.4656L41.4604 12.3466L41.0211 11.9073C40.1907 11.0769 38.7899 10.0541 37.5336 9.35996C32.9432 6.82443 27.3714 6.54488 22.6125 8.60008C21.32 9.15883 20.1675 9.82855 18.8402 10.8082C18.2493 11.235 16.4125 13.0718 15.9033 13.7354C14.3806 15.7312 13.2783 17.9923 12.7079 20.3297C12.5226 21.0943 12.4979 21.3604 12.5991 21.5875C12.7002 21.8147 12.9705 21.6558 13.2318 21.5875C13.348 21.5583 15.8076 20.7639 18.6157 19.4429C21.4237 18.1315 23.9993 16.9559 24.3333 16.8344C25.1126 16.5572 26.2349 16.5357 27.018 16.7857C28.0332 17.103 28.9654 17.7929 29.5008 18.6191C29.766 19.0297 33.2682 26.564 33.4943 27.2069C33.9368 28.4831 33.7355 30.0459 32.9982 31.1308C32.6829 31.5909 31.956 32.2792 31.5057 32.5364C31.2878 32.6674 28.6443 33.9205 25.6233 35.329C19.891 38.0004 19.9249 37.9858 19.8999 38.397C19.8948 38.4813 20.1117 38.948 21.4744 39.6517C26.7272 42.3552 33.0303 42.1448 38.1103 39.0926C39.752 38.1075 41.2442 36.8373 42.3884 35.4517C43.4405 34.1775 44.4158 32.6133 44.9988 31.2481L45.3147 30.5074L46.2242 30.4379C55.7885 29.7086 69.5552 29.5952 78.4302 30.1634C82.5073 30.4314 85.6314 30.793 88.0103 31.2818L88.7888 31.44L90.0441 32.6759C91.4007 34.0228 91.932 34.4475 93.2413 35.2431C96.0001 36.9259 98.9491 37.7619 102.166 37.7703C106.011 37.7775 109.356 36.644 112.693 34.1949C113.284 33.7681 115.121 31.9313 115.63 31.2676C116.847 29.6739 117.745 28.013 118.368 26.2028C118.689 25.2638 118.887 23.6531 118.907 23.3048C118.928 22.7727 118.635 22.9711 118.142 23.1462C117.977 23.2045 115.556 24.3217 112.753 25.6282C109.96 26.9348 107.428 28.0957 107.128 28.193C106.416 28.4411 105.255 28.453 104.516 28.2174C103.5 27.9 102.568 27.2101 102.033 26.384C101.768 25.9734 98.2654 18.439 98.0393 17.7961C97.693 16.7907 97.7242 15.649 98.1275 14.6663C98.3851 14.0419 98.6276 13.6834 99.1413 13.1697C99.7132 12.5979 99.9311 12.4765 102.149 11.4371C103.238 10.9271 105.765 9.75173 107.76 8.81918C111.744 6.94927 111.59 6.4852 111.59 6.4852C111.59 6.4852 111.46 6.12266 110.808 5.75146Z" fill="#FFA500"/>
<path d="M48.8034 21.2383C48.8034 22.2111 48.6693 23.0656 48.4011 23.8017C48.1382 24.5327 47.7543 25.1453 47.2495 25.6396C46.75 26.1286 46.1347 26.4967 45.4038 26.7438C44.6781 26.991 43.8499 27.1145 42.9192 27.1145H39.8825V15.5828H43.2584C44.105 15.5828 44.8674 15.7038 45.5458 15.9457C46.2294 16.1876 46.8131 16.5478 47.2968 17.0263C47.7806 17.4995 48.1513 18.0885 48.409 18.7931C48.6719 19.4977 48.8034 20.3128 48.8034 21.2383ZM46.3266 21.3014C46.3266 20.6598 46.2609 20.1077 46.1295 19.645C46.0033 19.177 45.8166 18.7905 45.5694 18.4855C45.3275 18.1805 45.0278 17.9544 44.6702 17.8072C44.3179 17.6599 43.913 17.5863 43.4556 17.5863H42.3276V25.0953H43.2268C44.2575 25.0953 45.0304 24.7798 45.5458 24.1488C46.0664 23.5178 46.3266 22.5686 46.3266 21.3014Z" fill="white"/>
<path d="M54.5886 19.8422C54.1627 19.8422 53.8077 19.992 53.5238 20.2918C53.2451 20.5915 53.0847 21.0621 53.0426 21.7036H56.1109C56.1056 21.4355 56.0715 21.1883 56.0084 20.9622C55.9453 20.7361 55.8506 20.5415 55.7244 20.3785C55.5982 20.2102 55.4405 20.0788 55.2512 19.9841C55.0619 19.8895 54.841 19.8422 54.5886 19.8422ZM54.8962 27.2723C54.2652 27.2723 53.6841 27.1803 53.153 26.9962C52.6219 26.8122 52.1645 26.5361 51.7806 26.168C51.3967 25.7947 51.097 25.3267 50.8814 24.764C50.6711 24.1961 50.5659 23.5309 50.5659 22.7685C50.5659 21.9955 50.6632 21.3198 50.8578 20.7413C51.0523 20.1629 51.3231 19.6818 51.6702 19.2979C52.0225 18.9088 52.4432 18.617 52.9322 18.4224C53.4265 18.2278 53.9734 18.1305 54.5728 18.1305C55.1565 18.1305 55.6823 18.2199 56.1503 18.3987C56.6236 18.5723 57.0232 18.8299 57.3493 19.1717C57.6805 19.5135 57.9329 19.9342 58.1065 20.4337C58.2853 20.928 58.3747 21.4959 58.3747 22.1375V23.3048H52.9953C53.0058 23.6414 53.0584 23.9464 53.153 24.2198C53.253 24.488 53.3897 24.7167 53.5632 24.906C53.742 25.0901 53.955 25.232 54.2021 25.3319C54.4545 25.4319 54.7411 25.4818 55.0619 25.4818C55.33 25.4818 55.5824 25.4687 55.8191 25.4424C56.061 25.4108 56.295 25.3661 56.5211 25.3083C56.7472 25.2504 56.9707 25.1794 57.1915 25.0953C57.4124 25.0059 57.6385 24.9034 57.8698 24.7877V26.6492C57.6595 26.7596 57.4465 26.8543 57.2309 26.9331C57.0206 27.0067 56.7971 27.0698 56.5605 27.1224C56.3239 27.175 56.0688 27.2118 55.7954 27.2329C55.522 27.2592 55.2222 27.2723 54.8962 27.2723Z" fill="white"/>
<path d="M68.08 27.1145H65.6743V21.9639C65.6743 21.3277 65.577 20.8518 65.3825 20.5363C65.1932 20.2155 64.8882 20.0551 64.4675 20.0551C64.152 20.0551 63.8891 20.1182 63.6787 20.2444C63.4684 20.3706 63.3001 20.5573 63.1739 20.8045C63.053 21.0516 62.9662 21.3566 62.9136 21.7194C62.8611 22.0822 62.8348 22.4977 62.8348 22.9657V27.1145H60.429V18.2962H62.2669L62.5903 19.4241H62.7243C62.8505 19.198 63.003 19.0034 63.1818 18.8404C63.3659 18.6774 63.5657 18.5433 63.7813 18.4382C63.9969 18.333 64.2256 18.2567 64.4675 18.2094C64.7094 18.1568 64.9565 18.1305 65.2089 18.1305C65.6401 18.1305 66.0319 18.1936 66.3842 18.3199C66.7365 18.4408 67.0389 18.6327 67.2913 18.8956C67.5437 19.1586 67.7382 19.4951 67.875 19.9053C68.0117 20.3102 68.08 20.7966 68.08 21.3645V27.1145Z" fill="white"/>
<path d="M72.4297 27.1145L69.3141 18.2962H71.8303L73.2895 23.3206C73.3789 23.6203 73.4551 23.9332 73.5182 24.2592C73.5866 24.58 73.6286 24.8692 73.6444 25.1269H73.6917C73.7075 24.8482 73.747 24.5537 73.8101 24.2435C73.8784 23.9279 73.9573 23.6203 74.0467 23.3206L75.498 18.2962H78.022L74.9064 27.1145H72.4297Z" fill="white"/>
<path d="M82.8687 19.8422C82.4427 19.8422 82.0878 19.992 81.8038 20.2918C81.5251 20.5915 81.3647 21.0621 81.3227 21.7036H84.391C84.3857 21.4355 84.3515 21.1883 84.2884 20.9622C84.2253 20.7361 84.1307 20.5415 84.0045 20.3785C83.8783 20.2102 83.7205 20.0788 83.5312 19.9841C83.3419 19.8895 83.1211 19.8422 82.8687 19.8422ZM83.1763 27.2723C82.5453 27.2723 81.9642 27.1803 81.4331 26.9962C80.902 26.8122 80.4445 26.5361 80.0607 26.168C79.6768 25.7947 79.3771 25.3267 79.1615 24.764C78.9511 24.1961 78.846 23.5309 78.846 22.7685C78.846 21.9955 78.9432 21.3198 79.1378 20.7413C79.3324 20.1629 79.6032 19.6818 79.9502 19.2979C80.3025 18.9088 80.7232 18.617 81.2123 18.4224C81.7065 18.2278 82.2534 18.1305 82.8529 18.1305C83.4366 18.1305 83.9624 18.2199 84.4304 18.3987C84.9037 18.5723 85.3033 18.8299 85.6293 19.1717C85.9606 19.5135 86.213 19.9342 86.3865 20.4337C86.5653 20.928 86.6547 21.4959 86.6547 22.1375V23.3048H81.2754C81.2859 23.6414 81.3385 23.9464 81.4331 24.2198C81.533 24.488 81.6697 24.7167 81.8433 24.906C82.022 25.0901 82.235 25.232 82.4822 25.3319C82.7346 25.4319 83.0211 25.4818 83.3419 25.4818C83.6101 25.4818 83.8625 25.4687 84.0991 25.4424C84.341 25.4108 84.575 25.3661 84.8011 25.3083C85.0272 25.2504 85.2507 25.1794 85.4716 25.0953C85.6924 25.0059 85.9185 24.9034 86.1499 24.7877V26.6492C85.9396 26.7596 85.7266 26.8543 85.511 26.9331C85.3007 27.0067 85.0772 27.0698 84.8406 27.1224C84.6039 27.175 84.3489 27.2118 84.0755 27.2329C83.802 27.2592 83.5023 27.2723 83.1763 27.2723Z" fill="white"/>
<path d="M93.3076 18.1305C93.3707 18.1305 93.439 18.1332 93.5127 18.1384C93.5915 18.1384 93.6652 18.1437 93.7335 18.1542C93.8071 18.1595 93.8729 18.1674 93.9307 18.1779C93.9938 18.1831 94.0411 18.191 94.0727 18.2015V20.4574C94.0306 20.4469 93.9728 20.4364 93.8992 20.4258C93.8255 20.4153 93.7467 20.4074 93.6625 20.4022C93.5837 20.3917 93.5048 20.3864 93.4259 20.3864C93.347 20.3811 93.2813 20.3785 93.2287 20.3785C92.9185 20.3785 92.6319 20.418 92.369 20.4968C92.1113 20.5757 91.8878 20.7045 91.6985 20.8833C91.5145 21.0569 91.3699 21.2882 91.2647 21.5774C91.1648 21.8614 91.1148 22.2111 91.1148 22.6265V27.1145H88.7091V18.2962H90.5311L90.8861 19.6213H91.0044C91.1306 19.3952 91.2673 19.1901 91.4146 19.0061C91.5618 18.822 91.7248 18.6669 91.9036 18.5407C92.0876 18.4092 92.2927 18.3093 92.5188 18.241C92.7502 18.1674 93.0131 18.1305 93.3076 18.1305Z" fill="white"/>
<path d="M16.1132 53.653L15.4371 51.3002H12.0297L11.3468 53.653H9.23071L12.4421 43.7281H15.0045L18.2294 53.653H16.1132ZM14.9504 49.5424L14.3148 47.379C14.2878 47.2978 14.2472 47.1649 14.1932 46.9801C14.1391 46.7953 14.0805 46.5925 14.0174 46.3716C13.9588 46.1462 13.9024 45.9209 13.8484 45.6955C13.7943 45.4702 13.756 45.2786 13.7334 45.1209C13.7154 45.22 13.6906 45.3372 13.659 45.4724C13.632 45.6076 13.5982 45.7519 13.5576 45.9051C13.5216 46.0538 13.4833 46.2048 13.4427 46.3581C13.4021 46.5113 13.3638 46.6556 13.3278 46.7908C13.2917 46.926 13.2579 47.0454 13.2264 47.1491C13.1993 47.2528 13.179 47.3294 13.1655 47.379L12.5368 49.5424H14.9504Z" fill="#FFA500"/>
<path d="M23.3098 53.7882C23.0619 53.7882 22.8388 53.7612 22.6405 53.7071C22.4467 53.653 22.2732 53.5809 22.1199 53.4907C21.9667 53.4006 21.8315 53.2992 21.7143 53.1865C21.5971 53.0693 21.4912 52.9476 21.3965 52.8214H21.2883C21.3064 52.9792 21.3244 53.1279 21.3424 53.2676C21.356 53.3848 21.3672 53.5065 21.3762 53.6327C21.3898 53.7544 21.3965 53.8491 21.3965 53.9167V56.9793H19.3345V46.0944H21.0112L21.3019 47.0747H21.3965C21.4912 46.9215 21.5993 46.7773 21.721 46.642C21.8427 46.5068 21.9825 46.3896 22.1402 46.2905C22.3025 46.1868 22.485 46.1057 22.6878 46.0471C22.8907 45.984 23.116 45.9524 23.3639 45.9524C23.756 45.9524 24.1121 46.0358 24.4321 46.2026C24.7521 46.3694 25.0271 46.6172 25.2569 46.9463C25.4868 47.2753 25.6648 47.6832 25.791 48.17C25.9173 48.6568 25.9804 49.2202 25.9804 49.8602C25.9804 50.5047 25.915 51.0726 25.7843 51.5639C25.6536 52.0507 25.4688 52.4608 25.2299 52.7944C24.9955 53.1234 24.7138 53.3713 24.3848 53.5381C24.0603 53.7048 23.702 53.7882 23.3098 53.7882ZM22.6676 47.6021C22.4377 47.6021 22.2416 47.6449 22.0794 47.7305C21.9216 47.8117 21.7932 47.9356 21.694 48.1024C21.5948 48.2691 21.5227 48.481 21.4776 48.7379C21.4326 48.9903 21.4055 49.2855 21.3965 49.6236V49.8467C21.3965 50.2118 21.4168 50.5363 21.4574 50.8202C21.5024 51.1042 21.5746 51.3431 21.6737 51.5369C21.7729 51.7262 21.9036 51.8704 22.0658 51.9696C22.2326 52.0687 22.4377 52.1183 22.6811 52.1183C23.0912 52.1183 23.391 51.9245 23.5803 51.5369C23.7741 51.1447 23.871 50.5768 23.871 49.8331C23.871 49.0895 23.7741 48.5328 23.5803 48.1632C23.391 47.7891 23.0867 47.6021 22.6676 47.6021Z" fill="#FFA500"/>
<path d="M31.7504 53.7882C31.5025 53.7882 31.2794 53.7612 31.0811 53.7071C30.8873 53.653 30.7138 53.5809 30.5605 53.4907C30.4073 53.4006 30.2721 53.2992 30.1549 53.1865C30.0377 53.0693 29.9318 52.9476 29.8371 52.8214H29.7289C29.747 52.9792 29.765 53.1279 29.783 53.2676C29.7965 53.3848 29.8078 53.5065 29.8168 53.6327C29.8304 53.7544 29.8371 53.8491 29.8371 53.9167V56.9793H27.7751V46.0944H29.4517L29.7425 47.0747H29.8371C29.9318 46.9215 30.0399 46.7773 30.1616 46.642C30.2833 46.5068 30.423 46.3896 30.5808 46.2905C30.7431 46.1868 30.9256 46.1057 31.1284 46.0471C31.3313 45.984 31.5566 45.9524 31.8045 45.9524C32.1966 45.9524 32.5527 46.0358 32.8727 46.2026C33.1927 46.3694 33.4677 46.6172 33.6975 46.9463C33.9274 47.2753 34.1054 47.6832 34.2316 48.17C34.3578 48.6568 34.4209 49.2202 34.4209 49.8602C34.4209 50.5047 34.3556 51.0726 34.2249 51.5639C34.0942 52.0507 33.9094 52.4608 33.6705 52.7944C33.4361 53.1234 33.1544 53.3713 32.8254 53.5381C32.5009 53.7048 32.1426 53.7882 31.7504 53.7882ZM31.1081 47.6021C30.8783 47.6021 30.6822 47.6449 30.52 47.7305C30.3622 47.8117 30.2337 47.9356 30.1346 48.1024C30.0354 48.2691 29.9633 48.481 29.9182 48.7379C29.8732 48.9903 29.8461 49.2855 29.8371 49.6236V49.8467C29.8371 50.2118 29.8574 50.5363 29.898 50.8202C29.943 51.1042 30.0151 51.3431 30.1143 51.5369C30.2135 51.7262 30.3442 51.8704 30.5064 51.9696C30.6732 52.0687 30.8783 52.1183 31.1217 52.1183C31.5318 52.1183 31.8316 51.9245 32.0209 51.5369C32.2147 51.1447 32.3116 50.5768 32.3116 49.8331C32.3116 49.0895 32.2147 48.5328 32.0209 48.1632C31.8316 47.7891 31.5273 47.6021 31.1081 47.6021Z" fill="#FFA500"/>
<path d="M38.2777 53.653H36.2157V43.1332H38.2777V53.653Z" fill="#FFA500"/>
<path d="M40.3767 44.1405C40.3767 43.9467 40.4059 43.7867 40.4645 43.6605C40.5231 43.5298 40.602 43.4261 40.7012 43.3495C40.8048 43.2684 40.9243 43.2121 41.0595 43.1805C41.1992 43.149 41.3457 43.1332 41.4989 43.1332C41.6522 43.1332 41.7964 43.149 41.9316 43.1805C42.0669 43.2121 42.184 43.2684 42.2832 43.3495C42.3869 43.4261 42.468 43.5298 42.5266 43.6605C42.5897 43.7867 42.6212 43.9467 42.6212 44.1405C42.6212 44.3298 42.5897 44.4898 42.5266 44.6206C42.468 44.7513 42.3869 44.8572 42.2832 44.9383C42.184 45.0149 42.0669 45.0713 41.9316 45.1073C41.7964 45.1389 41.6522 45.1547 41.4989 45.1547C41.3457 45.1547 41.1992 45.1389 41.0595 45.1073C40.9243 45.0713 40.8048 45.0149 40.7012 44.9383C40.602 44.8572 40.5231 44.7513 40.4645 44.6206C40.4059 44.4898 40.3767 44.3298 40.3767 44.1405ZM42.5266 53.653H40.4645V46.0944H42.5266V53.653Z" fill="#FFA500"/>
<path d="M49.1012 53.653L48.7023 52.6254H48.6415C48.4927 52.8282 48.344 53.004 48.1952 53.1527C48.0465 53.2969 47.8843 53.4164 47.7085 53.511C47.5327 53.6057 47.3344 53.6755 47.1135 53.7206C46.8972 53.7657 46.6448 53.7882 46.3563 53.7882C46.0498 53.7882 45.7659 53.7409 45.5044 53.6462C45.243 53.5471 45.0154 53.4006 44.8216 53.2068C44.6323 53.0085 44.4836 52.7606 44.3754 52.4631C44.2672 52.1611 44.2131 51.8051 44.2131 51.3949C44.2131 50.5926 44.47 50.0022 44.9839 49.6236C45.4977 49.2404 46.2662 49.0286 47.2893 48.988L48.4927 48.9475V48.3796C48.4927 48.0686 48.4026 47.8387 48.2223 47.69C48.042 47.5412 47.7896 47.4669 47.4651 47.4669C47.1406 47.4669 46.8228 47.5142 46.5118 47.6088C46.2053 47.7035 45.8966 47.8297 45.5856 47.9874L44.9163 46.6218C45.2949 46.4099 45.714 46.2432 46.1738 46.1215C46.6335 45.9998 47.1158 45.9389 47.6206 45.9389C48.5626 45.9389 49.2837 46.1598 49.784 46.6015C50.2888 47.0432 50.5413 47.7148 50.5413 48.6162V53.653H49.1012ZM48.4927 50.1509L47.8099 50.1779C47.5349 50.187 47.3028 50.223 47.1135 50.2861C46.9242 50.3492 46.771 50.4349 46.6538 50.543C46.5411 50.6467 46.4577 50.7729 46.4036 50.9216C46.3541 51.0659 46.3293 51.2281 46.3293 51.4084C46.3293 51.7239 46.4059 51.9493 46.5591 52.0845C46.7124 52.2152 46.9129 52.2806 47.1608 52.2806C47.3501 52.2806 47.5259 52.249 47.6882 52.1859C47.8504 52.1183 47.9902 52.0214 48.1074 51.8952C48.2291 51.7645 48.3237 51.6067 48.3913 51.4219C48.4589 51.2326 48.4927 51.0163 48.4927 50.7729V50.1509Z" fill="#FFA500"/>
<path d="M59.2388 53.653H57.1767V49.2382C57.1767 48.6928 57.0933 48.2849 56.9266 48.0145C56.7643 47.7395 56.5029 47.6021 56.1423 47.6021C55.8719 47.6021 55.6465 47.6562 55.4662 47.7643C55.2859 47.8725 55.1417 48.0325 55.0335 48.2444C54.9299 48.4562 54.8555 48.7176 54.8104 49.0286C54.7653 49.3396 54.7428 49.6957 54.7428 50.0968V53.653H52.6808V46.0944H54.256L54.5332 47.0612H54.6482C54.7563 46.8674 54.887 46.7006 55.0403 46.5609C55.198 46.4212 55.3693 46.3063 55.5541 46.2161C55.7389 46.126 55.935 46.0606 56.1423 46.02C56.3496 45.975 56.5615 45.9524 56.7778 45.9524C57.1474 45.9524 57.4832 46.0065 57.7852 46.1147C58.0872 46.2184 58.3463 46.3829 58.5627 46.6082C58.779 46.8336 58.9458 47.1221 59.063 47.4736C59.1802 47.8207 59.2388 48.2376 59.2388 48.7244V53.653Z" fill="#FFA500"/>
<path d="M64.522 53.7882C63.9812 53.7882 63.4922 53.7139 63.055 53.5651C62.6223 53.4164 62.2504 53.1865 61.9394 52.8755C61.6329 52.56 61.3963 52.1589 61.2295 51.6721C61.0673 51.1808 60.9861 50.5949 60.9861 49.9143C60.9861 49.1616 61.0695 48.5328 61.2363 48.028C61.4076 47.5187 61.6464 47.1108 61.9529 46.8043C62.2639 46.4978 62.6358 46.2792 63.0685 46.1485C63.5057 46.0178 63.9902 45.9524 64.522 45.9524C64.9097 45.9524 65.295 45.9998 65.6781 46.0944C66.0613 46.1891 66.4218 46.322 66.7599 46.4933L66.1649 48.0618C65.8675 47.9311 65.5812 47.8252 65.3063 47.7441C65.0314 47.6584 64.7699 47.6156 64.522 47.6156C64.0217 47.6156 63.6589 47.8072 63.4336 48.1903C63.2082 48.5689 63.0955 49.139 63.0955 49.9008C63.0955 50.658 63.2082 51.2169 63.4336 51.5774C63.6589 51.938 64.0127 52.1183 64.495 52.1183C64.8871 52.1183 65.2432 52.0687 65.5632 51.9696C65.8832 51.8659 66.21 51.7352 66.5435 51.5774V53.2947C66.3768 53.3758 66.2145 53.4479 66.0568 53.511C65.899 53.5741 65.739 53.626 65.5767 53.6665C65.419 53.7071 65.2522 53.7364 65.0764 53.7544C64.9052 53.777 64.7204 53.7882 64.522 53.7882Z" fill="#FFA500"/>
<path d="M71.3603 47.4195C70.9952 47.4195 70.691 47.548 70.4476 47.8049C70.2087 48.0618 70.0713 48.4652 70.0352 49.0151H72.6652C72.6607 48.7852 72.6314 48.5734 72.5773 48.3796C72.5232 48.1858 72.4421 48.019 72.3339 47.8793C72.2257 47.735 72.0905 47.6224 71.9282 47.5412C71.766 47.4601 71.5767 47.4195 71.3603 47.4195ZM71.624 53.7882C71.0831 53.7882 70.5851 53.7093 70.1299 53.5516C69.6746 53.3938 69.2825 53.1572 68.9535 52.8417C68.6245 52.5217 68.3675 52.1206 68.1827 51.6383C68.0025 51.1515 67.9123 50.5813 67.9123 49.9278C67.9123 49.2652 67.9957 48.6861 68.1625 48.1903C68.3292 47.6945 68.5614 47.2821 68.8588 46.953C69.1608 46.6195 69.5214 46.3694 69.9406 46.2026C70.3642 46.0358 70.833 45.9524 71.3468 45.9524C71.8471 45.9524 72.2978 46.0291 72.699 46.1823C73.1046 46.331 73.4472 46.5519 73.7266 46.8449C74.0106 47.1378 74.2269 47.4984 74.3757 47.9266C74.5289 48.3503 74.6055 48.8371 74.6055 49.3869V50.3875H69.9946C70.0037 50.676 70.0487 50.9374 70.1299 51.1718C70.2155 51.4017 70.3327 51.5977 70.4814 51.76C70.6347 51.9177 70.8172 52.0394 71.0291 52.1251C71.2454 52.2107 71.491 52.2535 71.766 52.2535C71.9958 52.2535 72.2122 52.2422 72.415 52.2197C72.6223 52.1927 72.8229 52.1544 73.0167 52.1048C73.2105 52.0552 73.4021 51.9944 73.5914 51.9222C73.7807 51.8456 73.9745 51.7577 74.1728 51.6586V53.2541C73.9925 53.3488 73.81 53.4299 73.6252 53.4975C73.4449 53.5606 73.2534 53.6147 73.0505 53.6598C72.8477 53.7048 72.6291 53.7364 72.3947 53.7544C72.1604 53.777 71.9034 53.7882 71.624 53.7882Z" fill="#FFA500"/>
<path d="M84.1174 53.653L81.9472 45.8983H81.8864C81.9134 46.313 81.9359 46.7142 81.954 47.1018C81.963 47.2685 81.9697 47.4398 81.9742 47.6156C81.9833 47.7914 81.99 47.9649 81.9945 48.1362C82.0035 48.3075 82.008 48.472 82.008 48.6297C82.0126 48.7875 82.0148 48.9294 82.0148 49.0557V53.653H80.1421V43.7687H82.9951L85.1315 51.3273H85.1721L87.4437 43.7687H90.2968V53.653H88.3429V48.9745C88.3429 48.8573 88.3429 48.7244 88.3429 48.5756C88.3474 48.4269 88.3519 48.2691 88.3564 48.1024C88.361 47.9356 88.3655 47.7666 88.37 47.5953C88.379 47.424 88.3857 47.2573 88.3903 47.095C88.4083 46.7164 88.4241 46.322 88.4376 45.9119H88.3835L86.0442 53.653H84.1174Z" fill="#FFA500"/>
<path d="M97.0269 53.653L96.628 52.6254H96.5672C96.4184 52.8282 96.2697 53.004 96.121 53.1527C95.9722 53.2969 95.81 53.4164 95.6342 53.511C95.4584 53.6057 95.2601 53.6755 95.0392 53.7206C94.8229 53.7657 94.5705 53.7882 94.282 53.7882C93.9755 53.7882 93.6916 53.7409 93.4302 53.6462C93.1687 53.5471 92.9411 53.4006 92.7473 53.2068C92.558 53.0085 92.4093 52.7606 92.3011 52.4631C92.1929 52.1611 92.1388 51.8051 92.1388 51.3949C92.1388 50.5926 92.3958 50.0022 92.9096 49.6236C93.4234 49.2404 94.1919 49.0286 95.215 48.988L96.4184 48.9475V48.3796C96.4184 48.0686 96.3283 47.8387 96.148 47.69C95.9677 47.5412 95.7153 47.4669 95.3908 47.4669C95.0663 47.4669 94.7485 47.5142 94.4375 47.6088C94.131 47.7035 93.8223 47.8297 93.5113 47.9874L92.842 46.6218C93.2206 46.4099 93.6397 46.2432 94.0995 46.1215C94.5592 45.9998 95.0415 45.9389 95.5463 45.9389C96.4883 45.9389 97.2095 46.1598 97.7098 46.6015C98.2146 47.0432 98.467 47.7148 98.467 48.6162V53.653H97.0269ZM96.4184 50.1509L95.7356 50.1779C95.4607 50.187 95.2285 50.223 95.0392 50.2861C94.8499 50.3492 94.6967 50.4349 94.5795 50.543C94.4668 50.6467 94.3834 50.7729 94.3293 50.9216C94.2798 51.0659 94.255 51.2281 94.255 51.4084C94.255 51.7239 94.3316 51.9493 94.4848 52.0845C94.6381 52.2152 94.8387 52.2806 95.0866 52.2806C95.2759 52.2806 95.4516 52.249 95.6139 52.1859C95.7762 52.1183 95.9159 52.0214 96.0331 51.8952C96.1548 51.7645 96.2494 51.6067 96.317 51.4219C96.3846 51.2326 96.4184 51.0163 96.4184 50.7729V50.1509Z" fill="#FFA500"/>
<path d="M105.643 51.4084C105.643 51.8051 105.571 52.1521 105.427 52.4496C105.283 52.7471 105.078 52.995 104.812 53.1933C104.546 53.3916 104.224 53.5403 103.845 53.6395C103.466 53.7386 103.043 53.7882 102.574 53.7882C102.326 53.7882 102.096 53.7792 101.884 53.7612C101.672 53.7477 101.472 53.7229 101.283 53.6868C101.093 53.6508 100.911 53.6057 100.735 53.5516C100.559 53.4975 100.381 53.4299 100.201 53.3488V51.645C100.39 51.7397 100.588 51.8253 100.796 51.902C101.008 51.9786 101.217 52.0462 101.425 52.1048C101.632 52.1589 101.832 52.2017 102.026 52.2332C102.225 52.2648 102.407 52.2806 102.574 52.2806C102.759 52.2806 102.916 52.2648 103.047 52.2332C103.178 52.1972 103.284 52.1499 103.365 52.0913C103.451 52.0282 103.511 51.956 103.547 51.8749C103.588 51.7893 103.608 51.6991 103.608 51.6045C103.608 51.5098 103.593 51.4264 103.561 51.3543C103.534 51.2777 103.469 51.1988 103.365 51.1177C103.261 51.0321 103.108 50.9374 102.905 50.8337C102.707 50.7256 102.439 50.5949 102.101 50.4416C101.772 50.2929 101.485 50.1464 101.242 50.0022C101.003 49.8534 100.805 49.6889 100.647 49.5086C100.494 49.3283 100.379 49.1233 100.302 48.8934C100.226 48.659 100.187 48.3818 100.187 48.0618C100.187 47.7102 100.255 47.4038 100.39 47.1423C100.525 46.8764 100.717 46.6556 100.965 46.4798C101.213 46.304 101.51 46.1733 101.857 46.0877C102.209 45.9975 102.599 45.9524 103.027 45.9524C103.478 45.9524 103.906 46.0043 104.311 46.1079C104.717 46.2116 105.134 46.3671 105.562 46.5744L104.94 48.0348C104.598 47.8725 104.271 47.7395 103.96 47.6359C103.649 47.5322 103.338 47.4804 103.027 47.4804C102.747 47.4804 102.545 47.53 102.418 47.6291C102.297 47.7283 102.236 47.8635 102.236 48.0348C102.236 48.1249 102.252 48.206 102.283 48.2782C102.315 48.3458 102.378 48.4179 102.472 48.4945C102.567 48.5666 102.7 48.6477 102.871 48.7379C103.043 48.8235 103.266 48.9294 103.541 49.0557C103.861 49.1954 104.149 49.3351 104.406 49.4748C104.663 49.61 104.884 49.7655 105.069 49.9413C105.253 50.1171 105.395 50.3222 105.495 50.5566C105.594 50.7909 105.643 51.0749 105.643 51.4084Z" fill="#FFA500"/>
<path d="M110.359 52.1453C110.561 52.1453 110.753 52.1228 110.933 52.0777C111.118 52.0327 111.305 51.9763 111.494 51.9087V53.4434C111.301 53.5426 111.06 53.6237 110.771 53.6868C110.487 53.7544 110.176 53.7882 109.838 53.7882C109.509 53.7882 109.203 53.7499 108.919 53.6733C108.635 53.5967 108.389 53.4637 108.182 53.2744C107.974 53.0806 107.81 52.8237 107.688 52.5037C107.571 52.1791 107.512 51.7735 107.512 51.2867V47.6426H106.525V46.7705L107.661 46.0809L108.256 44.4853H109.574V46.0944H111.413V47.6426H109.574V51.2867C109.574 51.5797 109.647 51.796 109.791 51.9358C109.935 52.0755 110.124 52.1453 110.359 52.1453Z" fill="#FFA500"/>
<path d="M116.095 47.4195C115.73 47.4195 115.426 47.548 115.182 47.8049C114.943 48.0618 114.806 48.4652 114.77 49.0151H117.4C117.395 48.7852 117.366 48.5734 117.312 48.3796C117.258 48.1858 117.177 48.019 117.068 47.8793C116.96 47.735 116.825 47.6224 116.663 47.5412C116.501 47.4601 116.311 47.4195 116.095 47.4195ZM116.359 53.7882C115.818 53.7882 115.32 53.7093 114.864 53.5516C114.409 53.3938 114.017 53.1572 113.688 52.8417C113.359 52.5217 113.102 52.1206 112.917 51.6383C112.737 51.1515 112.647 50.5813 112.647 49.9278C112.647 49.2652 112.73 48.6861 112.897 48.1903C113.064 47.6945 113.296 47.2821 113.593 46.953C113.895 46.6195 114.256 46.3694 114.675 46.2026C115.099 46.0358 115.568 45.9524 116.081 45.9524C116.582 45.9524 117.032 46.0291 117.434 46.1823C117.839 46.331 118.182 46.5519 118.461 46.8449C118.745 47.1378 118.962 47.4984 119.11 47.9266C119.264 48.3503 119.34 48.8371 119.34 49.3869V50.3875H114.729C114.738 50.676 114.783 50.9374 114.864 51.1718C114.95 51.4017 115.067 51.5977 115.216 51.76C115.369 51.9177 115.552 52.0394 115.764 52.1251C115.98 52.2107 116.226 52.2535 116.501 52.2535C116.73 52.2535 116.947 52.2422 117.15 52.2197C117.357 52.1927 117.558 52.1544 117.751 52.1048C117.945 52.0552 118.137 51.9944 118.326 51.9222C118.515 51.8456 118.709 51.7577 118.907 51.6586V53.2541C118.727 53.3488 118.545 53.4299 118.36 53.4975C118.18 53.5606 117.988 53.6147 117.785 53.6598C117.582 53.7048 117.364 53.7364 117.129 53.7544C116.895 53.777 116.638 53.7882 116.359 53.7882Z" fill="#FFA500"/>
<path d="M125.043 45.9524C125.097 45.9524 125.155 45.9547 125.218 45.9592C125.286 45.9592 125.349 45.9637 125.408 45.9727C125.471 45.9772 125.527 45.984 125.577 45.993C125.631 45.9975 125.671 46.0043 125.698 46.0133V47.9469C125.662 47.9379 125.613 47.9288 125.55 47.9198C125.487 47.9108 125.419 47.9041 125.347 47.8996C125.279 47.8905 125.212 47.886 125.144 47.886C125.076 47.8815 125.02 47.8793 124.975 47.8793C124.709 47.8793 124.463 47.9131 124.238 47.9807C124.017 48.0483 123.826 48.1587 123.663 48.312C123.506 48.4607 123.382 48.659 123.292 48.9069C123.206 49.1503 123.163 49.45 123.163 49.8061V53.653H121.101V46.0944H122.663L122.967 47.2302H123.068C123.177 47.0364 123.294 46.8606 123.42 46.7029C123.546 46.5451 123.686 46.4122 123.839 46.304C123.997 46.1913 124.173 46.1057 124.367 46.0471C124.565 45.984 124.79 45.9524 125.043 45.9524Z" fill="#FFA500"/>
</svg>
