<svg width="117" height="52" viewBox="0 0 117 52" fill="none" xmlns="http://www.w3.org/2000/svg">
<path d="M96.0338 4.98469C90.9291 2.09769 84.7912 2.37773 80.077 5.71114C78.5364 6.79147 76.9191 8.5427 75.9728 10.1501L75.7289 10.553L75.4101 10.6123C73.8334 10.892 69.7411 11.2436 66.2781 11.3928C62.2324 11.5724 53.9359 11.6512 49.8404 11.5542C44.3363 11.418 39.9015 11.1666 36.8084 10.8036L35.9324 10.7005L35.5517 10.3197C34.832 9.60006 33.618 8.71365 32.5291 8.11207C28.5508 5.91461 23.7219 5.67232 19.5976 7.4535C18.4774 7.93775 17.4785 8.51818 16.3282 9.3672C15.8161 9.73709 14.2242 11.329 13.7829 11.9041C12.4633 13.6338 11.5079 15.5934 11.0135 17.6192C10.853 18.2818 10.8316 18.5124 10.9192 18.7093C11.0069 18.9062 11.2411 18.7684 11.4676 18.7093C11.5683 18.684 13.7 17.9955 16.1336 16.8506C18.5673 15.714 20.7994 14.6953 21.0889 14.5899C21.7643 14.3496 22.7369 14.331 23.4156 14.5477C24.2955 14.8227 25.1034 15.4206 25.5674 16.1366C25.7973 16.4925 28.8325 23.0223 29.0284 23.5795C29.412 24.6854 29.2375 26.0399 28.5985 26.9801C28.3252 27.3789 27.6953 27.9754 27.305 28.1983C27.1161 28.3119 24.8251 29.3978 22.2069 30.6186C17.2389 32.9338 17.2683 32.9211 17.2466 33.2775C17.2422 33.3506 17.4302 33.7551 18.6112 34.3649C23.1636 36.7079 28.6263 36.5256 33.029 33.8803C34.4518 33.0266 35.745 31.9258 36.7367 30.7249C37.6485 29.6206 38.4937 28.2649 38.9991 27.0818L39.2728 26.4398L40.061 26.3797C48.3501 25.7475 60.2812 25.6492 67.9729 26.1418C71.5064 26.3739 74.2139 26.6874 76.2757 27.111L76.9503 27.2481L78.0383 28.3192C79.214 29.4865 79.6745 29.8546 80.8092 30.5441C83.2001 32.0026 85.756 32.7271 88.5437 32.7344C91.8765 32.7406 94.7752 31.7582 97.6676 29.6356C98.1798 29.2658 99.7717 27.6739 100.213 27.0987C101.268 25.7175 102.046 24.2781 102.586 22.7092C102.864 21.8954 103.036 20.4995 103.053 20.1976C103.071 19.7364 102.817 19.9084 102.39 20.0601C102.247 20.1107 100.149 21.0789 97.7196 22.2112C95.2985 23.3436 93.1041 24.3497 92.844 24.434C92.2274 24.649 91.2212 24.6593 90.5802 24.4551C89.7004 24.1801 88.8924 23.5822 88.4285 22.8662C88.1986 22.5103 85.1634 15.9806 84.9674 15.4234C84.6673 14.552 84.6943 13.5626 85.0439 12.7109C85.2671 12.1697 85.4773 11.8591 85.9225 11.4139C86.4182 10.9182 86.607 10.8131 88.5288 9.91227C89.4728 9.47028 91.6631 8.45159 93.3918 7.64339C96.8451 6.0228 96.7117 5.6206 96.7117 5.6206C96.7117 5.6206 96.5991 5.30641 96.0338 4.98469Z" fill="#FFA500"/>
<path d="M42.2963 18.4066C42.2963 19.2497 42.1801 19.9903 41.9477 20.6283C41.7198 21.2617 41.3871 21.7927 40.9496 22.2211C40.5167 22.6449 39.9835 22.9639 39.35 23.1781C38.7211 23.3923 38.0033 23.4994 37.1967 23.4994H34.5648V13.5052H37.4906C38.2244 13.5052 38.8852 13.61 39.4731 13.8197C40.0655 14.0293 40.5714 14.3415 40.9906 14.7562C41.4099 15.1664 41.7312 15.6768 41.9545 16.2875C42.1824 16.8981 42.2963 17.6045 42.2963 18.4066ZM40.1498 18.4613C40.1498 17.9053 40.0928 17.4268 39.9789 17.0257C39.8695 16.6201 39.7078 16.2852 39.4936 16.0209C39.2839 15.7565 39.0242 15.5606 38.7143 15.433C38.4089 15.3054 38.058 15.2416 37.6615 15.2416H36.684V21.7494H37.4633C38.3565 21.7494 39.0264 21.4759 39.4731 20.9291C39.9242 20.3822 40.1498 19.5596 40.1498 18.4613Z" fill="white"/>
<path d="M47.3102 17.1966C46.941 17.1966 46.6334 17.3265 46.3873 17.5863C46.1458 17.8461 46.0068 18.2539 45.9703 18.8099H48.6295C48.6249 18.5775 48.5953 18.3633 48.5406 18.1673C48.4859 17.9714 48.4039 17.8028 48.2945 17.6615C48.1852 17.5156 48.0484 17.4017 47.8844 17.3197C47.7203 17.2377 47.5289 17.1966 47.3102 17.1966ZM47.5768 23.6361C47.0299 23.6361 46.5263 23.5563 46.066 23.3968C45.6057 23.2373 45.2093 22.9981 44.8766 22.6791C44.5439 22.3555 44.2841 21.9499 44.0973 21.4623C43.915 20.9701 43.8238 20.3936 43.8238 19.7328C43.8238 19.0628 43.9081 18.4772 44.0768 17.9759C44.2454 17.4746 44.4801 17.0576 44.7809 16.725C45.0862 16.3877 45.4508 16.1348 45.8746 15.9662C46.303 15.7975 46.777 15.7132 47.2965 15.7132C47.8024 15.7132 48.2581 15.7907 48.6637 15.9457C49.0738 16.0961 49.4202 16.3194 49.7027 16.6156C49.9899 16.9118 50.2086 17.2764 50.359 17.7093C50.5139 18.1377 50.5914 18.6299 50.5914 19.1859V20.1976H45.9293C45.9384 20.4893 45.984 20.7536 46.066 20.9906C46.1526 21.223 46.2711 21.4212 46.4215 21.5853C46.5764 21.7448 46.761 21.8679 46.9752 21.9544C47.194 22.041 47.4423 22.0843 47.7203 22.0843C47.9527 22.0843 48.1715 22.0729 48.3766 22.0502C48.5862 22.0228 48.789 21.9841 48.985 21.9339C49.1809 21.8838 49.3746 21.8223 49.566 21.7494C49.7574 21.6719 49.9534 21.583 50.1539 21.4828V23.0961C49.9716 23.1918 49.7871 23.2738 49.6002 23.3421C49.4179 23.4059 49.2242 23.4606 49.0191 23.5062C48.8141 23.5518 48.593 23.5837 48.3561 23.6019C48.1191 23.6247 47.8593 23.6361 47.5768 23.6361Z" fill="white"/>
<path d="M59.0027 23.4994H56.9178V19.0355C56.9178 18.4841 56.8335 18.0716 56.6649 17.7982C56.5008 17.5202 56.2365 17.3812 55.8719 17.3812C55.5984 17.3812 55.3706 17.4359 55.1883 17.5453C55.006 17.6546 54.8602 17.8164 54.7508 18.0306C54.646 18.2448 54.5708 18.5091 54.5252 18.8236C54.4796 19.138 54.4568 19.4981 54.4568 19.9037V23.4994H52.3719V15.8568H53.9647L54.2449 16.8343H54.3611C54.4705 16.6384 54.6027 16.4697 54.7576 16.3285C54.9171 16.1872 55.0903 16.071 55.2772 15.9798C55.464 15.8887 55.6623 15.8226 55.8719 15.7816C56.0815 15.736 56.2957 15.7132 56.5145 15.7132C56.8882 15.7132 57.2277 15.7679 57.533 15.8773C57.8384 15.9821 58.1004 16.1485 58.3192 16.3763C58.5379 16.6042 58.7065 16.8959 58.825 17.2513C58.9435 17.6022 59.0027 18.0238 59.0027 18.516V23.4994Z" fill="white"/>
<path d="M62.7725 23.4994L60.0723 15.8568H62.2529L63.5176 20.2113C63.5951 20.4711 63.6611 20.7422 63.7158 21.0248C63.7751 21.3028 63.8115 21.5534 63.8252 21.7767H63.8662C63.8799 21.5352 63.9141 21.28 63.9688 21.0111C64.028 20.7377 64.0964 20.4711 64.1738 20.2113L65.4317 15.8568H67.6192L64.919 23.4994H62.7725Z" fill="white"/>
<path d="M71.8195 17.1966C71.4504 17.1966 71.1428 17.3265 70.8967 17.5863C70.6552 17.8461 70.5162 18.2539 70.4797 18.8099H73.1389C73.1343 18.5775 73.1047 18.3633 73.05 18.1673C72.9953 17.9714 72.9133 17.8028 72.8039 17.6615C72.6945 17.5156 72.5578 17.4017 72.3938 17.3197C72.2297 17.2377 72.0383 17.1966 71.8195 17.1966ZM72.0862 23.6361C71.5393 23.6361 71.0357 23.5563 70.5754 23.3968C70.1151 23.2373 69.7186 22.9981 69.386 22.6791C69.0533 22.3555 68.7935 21.9499 68.6067 21.4623C68.4244 20.9701 68.3332 20.3936 68.3332 19.7328C68.3332 19.0628 68.4175 18.4772 68.5862 17.9759C68.7548 17.4746 68.9895 17.0576 69.2903 16.725C69.5956 16.3877 69.9602 16.1348 70.384 15.9662C70.8124 15.7975 71.2863 15.7132 71.8059 15.7132C72.3117 15.7132 72.7675 15.7907 73.1731 15.9457C73.5832 16.0961 73.9296 16.3194 74.2121 16.6156C74.4992 16.9118 74.718 17.2764 74.8684 17.7093C75.0233 18.1377 75.1008 18.6299 75.1008 19.1859V20.1976H70.4387C70.4478 20.4893 70.4934 20.7536 70.5754 20.9906C70.662 21.223 70.7805 21.4212 70.9309 21.5853C71.0858 21.7448 71.2704 21.8679 71.4846 21.9544C71.7033 22.041 71.9517 22.0843 72.2297 22.0843C72.4621 22.0843 72.6809 22.0729 72.886 22.0502C73.0956 22.0228 73.2984 21.9841 73.4944 21.9339C73.6903 21.8838 73.884 21.8223 74.0754 21.7494C74.2668 21.6719 74.4628 21.583 74.6633 21.4828V23.0961C74.481 23.1918 74.2964 23.2738 74.1096 23.3421C73.9273 23.4059 73.7336 23.4606 73.5285 23.5062C73.3235 23.5518 73.1024 23.5837 72.8654 23.6019C72.6285 23.6247 72.3687 23.6361 72.0862 23.6361Z" fill="white"/>
<path d="M80.8666 15.7132C80.9213 15.7132 80.9806 15.7155 81.0444 15.7201C81.1127 15.7201 81.1765 15.7246 81.2358 15.7337C81.2996 15.7383 81.3565 15.7451 81.4067 15.7543C81.4613 15.7588 81.5024 15.7656 81.5297 15.7748V17.7298C81.4932 17.7207 81.4431 17.7116 81.3793 17.7025C81.3155 17.6934 81.2472 17.6865 81.1742 17.682C81.1059 17.6729 81.0375 17.6683 80.9692 17.6683C80.9008 17.6638 80.8438 17.6615 80.7983 17.6615C80.5294 17.6615 80.281 17.6957 80.0531 17.764C79.8298 17.8324 79.6362 17.944 79.4721 18.099C79.3126 18.2494 79.1873 18.4499 79.0961 18.7005C79.0095 18.9466 78.9662 19.2497 78.9662 19.6097V23.4994H76.8813V15.8568H78.4604L78.768 17.0052H78.8705C78.9799 16.8093 79.0984 16.6315 79.226 16.472C79.3536 16.3125 79.4949 16.1781 79.6498 16.0687C79.8093 15.9548 79.9871 15.8682 80.183 15.8089C80.3836 15.7451 80.6114 15.7132 80.8666 15.7132Z" fill="white"/>
<path d="M13.9648 46.4994L13.3789 44.4603H10.4258L9.83398 46.4994H8L10.7832 37.8978H13.0039L15.7988 46.4994H13.9648ZM12.957 42.9369L12.4062 41.0619C12.3828 40.9916 12.3477 40.8763 12.3008 40.7162C12.2539 40.556 12.2031 40.3802 12.1484 40.1888C12.0977 39.9935 12.0488 39.7982 12.002 39.6029C11.9551 39.4076 11.9219 39.2416 11.9023 39.1048C11.8867 39.1908 11.8652 39.2923 11.8379 39.4095C11.8145 39.5267 11.7852 39.6517 11.75 39.7845C11.7188 39.9134 11.6855 40.0443 11.6504 40.1771C11.6152 40.3099 11.582 40.4349 11.5508 40.5521C11.5195 40.6693 11.4902 40.7728 11.4629 40.8627C11.4395 40.9525 11.4219 41.0189 11.4102 41.0619L10.8652 42.9369H12.957Z" fill="#FFA500"/>
<path d="M20.2019 46.6166C19.9871 46.6166 19.7937 46.5931 19.6218 46.5462C19.4539 46.4994 19.3035 46.4369 19.1707 46.3587C19.0378 46.2806 18.9207 46.1927 18.8191 46.0951C18.7175 45.9935 18.6257 45.888 18.5437 45.7787H18.4499C18.4656 45.9154 18.4812 46.0443 18.4968 46.1654C18.5085 46.2669 18.5183 46.3724 18.5261 46.4818C18.5378 46.5873 18.5437 46.6693 18.5437 46.7279V49.3822H16.7566V39.9486H18.2097L18.4617 40.7982H18.5437C18.6257 40.6654 18.7195 40.5404 18.8249 40.4232C18.9304 40.306 19.0515 40.2044 19.1882 40.1185C19.3289 40.0287 19.4871 39.9584 19.6628 39.9076C19.8386 39.8529 20.0339 39.8255 20.2488 39.8255C20.5886 39.8255 20.8972 39.8978 21.1746 40.0423C21.4519 40.1869 21.6902 40.4017 21.8894 40.6869C22.0886 40.972 22.2429 41.3255 22.3523 41.7474C22.4617 42.1693 22.5164 42.6576 22.5164 43.2123C22.5164 43.7709 22.4597 44.263 22.3464 44.6888C22.2332 45.1107 22.073 45.4662 21.866 45.7552C21.6628 46.0404 21.4187 46.2552 21.1335 46.3998C20.8523 46.5443 20.5417 46.6166 20.2019 46.6166ZM19.6453 41.2552C19.446 41.2552 19.2761 41.2923 19.1355 41.3666C18.9988 41.4369 18.8874 41.5443 18.8015 41.6888C18.7156 41.8334 18.6531 42.0169 18.614 42.2396C18.5749 42.4584 18.5515 42.7142 18.5437 43.0072V43.2005C18.5437 43.5169 18.5613 43.7982 18.5964 44.0443C18.6355 44.2904 18.698 44.4974 18.7839 44.6654C18.8699 44.8294 18.9832 44.9544 19.1238 45.0404C19.2683 45.1263 19.446 45.1693 19.657 45.1693C20.0124 45.1693 20.2722 45.0013 20.4363 44.6654C20.6042 44.3255 20.6882 43.8334 20.6882 43.1888C20.6882 42.5443 20.6042 42.0619 20.4363 41.7416C20.2722 41.4173 20.0085 41.2552 19.6453 41.2552Z" fill="#FFA500"/>
<path d="M27.5171 46.6166C27.3022 46.6166 27.1089 46.5931 26.937 46.5462C26.769 46.4994 26.6186 46.4369 26.4858 46.3587C26.353 46.2806 26.2358 46.1927 26.1343 46.0951C26.0327 45.9935 25.9409 45.888 25.8589 45.7787H25.7651C25.7808 45.9154 25.7964 46.0443 25.812 46.1654C25.8237 46.2669 25.8335 46.3724 25.8413 46.4818C25.853 46.5873 25.8589 46.6693 25.8589 46.7279V49.3822H24.0718V39.9486H25.5249L25.7768 40.7982H25.8589C25.9409 40.6654 26.0347 40.5404 26.1401 40.4232C26.2456 40.306 26.3667 40.2044 26.5034 40.1185C26.644 40.0287 26.8022 39.9584 26.978 39.9076C27.1538 39.8529 27.3491 39.8255 27.564 39.8255C27.9038 39.8255 28.2124 39.8978 28.4897 40.0423C28.7671 40.1869 29.0054 40.4017 29.2046 40.6869C29.4038 40.972 29.5581 41.3255 29.6675 41.7474C29.7768 42.1693 29.8315 42.6576 29.8315 43.2123C29.8315 43.7709 29.7749 44.263 29.6616 44.6888C29.5483 45.1107 29.3882 45.4662 29.1811 45.7552C28.978 46.0404 28.7339 46.2552 28.4487 46.3998C28.1675 46.5443 27.8569 46.6166 27.5171 46.6166ZM26.9604 41.2552C26.7612 41.2552 26.5913 41.2923 26.4507 41.3666C26.314 41.4369 26.2026 41.5443 26.1167 41.6888C26.0308 41.8334 25.9683 42.0169 25.9292 42.2396C25.8901 42.4584 25.8667 42.7142 25.8589 43.0072V43.2005C25.8589 43.5169 25.8765 43.7982 25.9116 44.0443C25.9507 44.2904 26.0132 44.4974 26.0991 44.6654C26.1851 44.8294 26.2983 44.9544 26.439 45.0404C26.5835 45.1263 26.7612 45.1693 26.9722 45.1693C27.3276 45.1693 27.5874 45.0013 27.7515 44.6654C27.9194 44.3255 28.0034 43.8334 28.0034 43.1888C28.0034 42.5443 27.9194 42.0619 27.7515 41.7416C27.5874 41.4173 27.3237 41.2552 26.9604 41.2552Z" fill="#FFA500"/>
<path d="M33.1741 46.4994H31.3869V37.3822H33.1741V46.4994Z" fill="#FFA500"/>
<path d="M34.9931 38.2552C34.9931 38.0873 35.0185 37.9486 35.0693 37.8392C35.1201 37.7259 35.1885 37.6361 35.2744 37.5697C35.3642 37.4994 35.4678 37.4505 35.5849 37.4232C35.706 37.3959 35.833 37.3822 35.9658 37.3822C36.0986 37.3822 36.2236 37.3959 36.3408 37.4232C36.458 37.4505 36.5596 37.4994 36.6455 37.5697C36.7353 37.6361 36.8056 37.7259 36.8564 37.8392C36.9111 37.9486 36.9385 38.0873 36.9385 38.2552C36.9385 38.4193 36.9111 38.558 36.8564 38.6712C36.8056 38.7845 36.7353 38.8763 36.6455 38.9466C36.5596 39.013 36.458 39.0619 36.3408 39.0931C36.2236 39.1205 36.0986 39.1341 35.9658 39.1341C35.833 39.1341 35.706 39.1205 35.5849 39.0931C35.4678 39.0619 35.3642 39.013 35.2744 38.9466C35.1885 38.8763 35.1201 38.7845 35.0693 38.6712C35.0185 38.558 34.9931 38.4193 34.9931 38.2552ZM36.8564 46.4994H35.0693V39.9486H36.8564V46.4994Z" fill="#FFA500"/>
<path d="M42.5544 46.4994L42.2087 45.6087H42.156C42.0271 45.7845 41.8982 45.9369 41.7693 46.0658C41.6404 46.1908 41.4997 46.2943 41.3474 46.3763C41.195 46.4584 41.0232 46.5189 40.8318 46.558C40.6443 46.597 40.4255 46.6166 40.1755 46.6166C39.9099 46.6166 39.6638 46.5755 39.4372 46.4935C39.2107 46.4076 39.0134 46.2806 38.8454 46.1127C38.6814 45.9408 38.5525 45.7259 38.4587 45.4681C38.365 45.2064 38.3181 44.8978 38.3181 44.5423C38.3181 43.847 38.5408 43.3353 38.9861 43.0072C39.4314 42.6752 40.0974 42.4916 40.9841 42.4564L42.0271 42.4212V41.9291C42.0271 41.6595 41.949 41.4603 41.7927 41.3314C41.6365 41.2025 41.4177 41.138 41.1365 41.138C40.8552 41.138 40.5798 41.1791 40.3103 41.2611C40.0447 41.3431 39.7771 41.4525 39.5075 41.5892L38.9275 40.4056C39.2556 40.222 39.6189 40.0775 40.0173 39.972C40.4157 39.8666 40.8337 39.8138 41.2712 39.8138C42.0876 39.8138 42.7126 40.0052 43.1462 40.388C43.5837 40.7709 43.8025 41.3529 43.8025 42.1341V46.4994H42.5544ZM42.0271 43.4642L41.4353 43.4877C41.197 43.4955 40.9958 43.5267 40.8318 43.5814C40.6677 43.6361 40.5349 43.7103 40.4333 43.8041C40.3357 43.8939 40.2634 44.0033 40.2165 44.1322C40.1736 44.2572 40.1521 44.3978 40.1521 44.5541C40.1521 44.8275 40.2185 45.0228 40.3513 45.14C40.4841 45.2533 40.6579 45.3099 40.8728 45.3099C41.0368 45.3099 41.1892 45.2826 41.3298 45.2279C41.4704 45.1693 41.5915 45.0853 41.6931 44.9759C41.7986 44.8627 41.8806 44.7259 41.9392 44.5658C41.9978 44.4017 42.0271 44.2142 42.0271 44.0033V43.4642Z" fill="#FFA500"/>
<path d="M51.3403 46.4994H49.5532V42.6732C49.5532 42.2005 49.4809 41.847 49.3364 41.6127C49.1958 41.3744 48.9692 41.2552 48.6567 41.2552C48.4223 41.2552 48.227 41.3021 48.0708 41.3959C47.9145 41.4896 47.7895 41.6283 47.6958 41.8119C47.6059 41.9955 47.5415 42.222 47.5024 42.4916C47.4634 42.7611 47.4438 43.0697 47.4438 43.4173V46.4994H45.6567V39.9486H47.0219L47.2622 40.7865H47.3618C47.4555 40.6185 47.5688 40.474 47.7016 40.3529C47.8384 40.2318 47.9868 40.1322 48.1469 40.0541C48.3071 39.9759 48.477 39.9193 48.6567 39.8841C48.8364 39.8451 49.02 39.8255 49.2075 39.8255C49.5278 39.8255 49.8188 39.8724 50.0805 39.9662C50.3423 40.056 50.5669 40.1986 50.7544 40.3939C50.9419 40.5892 51.0864 40.8392 51.188 41.1439C51.2895 41.4447 51.3403 41.806 51.3403 42.2279V46.4994Z" fill="#FFA500"/>
<path d="M55.9192 46.6166C55.4504 46.6166 55.0266 46.5521 54.6477 46.4232C54.2727 46.2943 53.9504 46.0951 53.6809 45.8255C53.4153 45.5521 53.2102 45.2044 53.0656 44.7826C52.925 44.3568 52.8547 43.849 52.8547 43.2591C52.8547 42.6068 52.927 42.0619 53.0715 41.6244C53.2199 41.183 53.427 40.8294 53.6926 40.5638C53.9621 40.2982 54.2844 40.1087 54.6594 39.9955C55.0383 39.8822 55.4582 39.8255 55.9192 39.8255C56.2551 39.8255 56.5891 39.8666 56.9211 39.9486C57.2531 40.0306 57.5656 40.1459 57.8586 40.2943L57.343 41.6537C57.0852 41.5404 56.8371 41.4486 56.5988 41.3783C56.3606 41.3041 56.134 41.2669 55.9192 41.2669C55.4856 41.2669 55.1711 41.433 54.9758 41.765C54.7805 42.0931 54.6828 42.5873 54.6828 43.2474C54.6828 43.9037 54.7805 44.388 54.9758 44.7005C55.1711 45.013 55.4778 45.1693 55.8957 45.1693C56.2356 45.1693 56.5442 45.1263 56.8215 45.0404C57.0988 44.9505 57.382 44.8373 57.6711 44.7005V46.1888C57.5266 46.2591 57.386 46.3216 57.2492 46.3763C57.1125 46.431 56.9738 46.4759 56.8332 46.5111C56.6965 46.5462 56.552 46.5716 56.3996 46.5873C56.2512 46.6068 56.091 46.6166 55.9192 46.6166Z" fill="#FFA500"/>
<path d="M61.8457 41.097C61.5293 41.097 61.2656 41.2084 61.0547 41.431C60.8476 41.6537 60.7285 42.0033 60.6972 42.4798H62.9765C62.9726 42.2806 62.9472 42.097 62.9004 41.9291C62.8535 41.7611 62.7832 41.6166 62.6894 41.4955C62.5957 41.3705 62.4785 41.2728 62.3379 41.2025C62.1972 41.1322 62.0332 41.097 61.8457 41.097ZM62.0742 46.6166C61.6054 46.6166 61.1738 46.5482 60.7793 46.4115C60.3847 46.2748 60.0449 46.0697 59.7597 45.7962C59.4746 45.5189 59.2519 45.1712 59.0918 44.7533C58.9355 44.3314 58.8574 43.8373 58.8574 43.2709C58.8574 42.6966 58.9297 42.1947 59.0742 41.765C59.2187 41.3353 59.4199 40.9779 59.6777 40.6927C59.9394 40.4037 60.2519 40.1869 60.6152 40.0423C60.9824 39.8978 61.3886 39.8255 61.834 39.8255C62.2675 39.8255 62.6582 39.8919 63.0058 40.0248C63.3574 40.1537 63.6543 40.3451 63.8965 40.599C64.1425 40.8529 64.33 41.1654 64.459 41.5365C64.5918 41.9037 64.6582 42.3255 64.6582 42.8021V43.6693H60.6621C60.6699 43.9193 60.709 44.1459 60.7793 44.349C60.8535 44.5482 60.955 44.7181 61.084 44.8587C61.2168 44.9955 61.375 45.1009 61.5586 45.1752C61.7461 45.2494 61.959 45.2865 62.1972 45.2865C62.3965 45.2865 62.584 45.2767 62.7597 45.2572C62.9394 45.2337 63.1132 45.2005 63.2812 45.1576C63.4492 45.1146 63.6152 45.0619 63.7793 44.9994C63.9433 44.933 64.1113 44.8568 64.2832 44.7709V46.1537C64.1269 46.2357 63.9687 46.306 63.8086 46.3646C63.6523 46.4193 63.4863 46.4662 63.3105 46.5052C63.1347 46.5443 62.9453 46.5716 62.7422 46.5873C62.539 46.6068 62.3164 46.6166 62.0742 46.6166Z" fill="#FFA500"/>
<path d="M72.9018 46.4994L71.021 39.7787H70.9682C70.9917 40.138 71.0112 40.4857 71.0268 40.8216C71.0346 40.9662 71.0405 41.1146 71.0444 41.2669C71.0522 41.4193 71.0581 41.5697 71.062 41.7181C71.0698 41.8666 71.0737 42.0091 71.0737 42.1459C71.0776 42.2826 71.0795 42.4056 71.0795 42.515V46.4994H69.4565V37.933H71.9292L73.7807 44.4837H73.8159L75.7846 37.933H78.2573V46.4994H76.5639V42.4447C76.5639 42.3431 76.5639 42.2279 76.5639 42.099C76.5678 41.9701 76.5717 41.8334 76.5756 41.6888C76.5795 41.5443 76.5835 41.3978 76.5874 41.2494C76.5952 41.1009 76.601 40.9564 76.6049 40.8158C76.6206 40.4877 76.6342 40.1459 76.646 39.7904H76.5991L74.5717 46.4994H72.9018Z" fill="#FFA500"/>
<path d="M84.09 46.4994L83.7443 45.6087H83.6916C83.5627 45.7845 83.4338 45.9369 83.3049 46.0658C83.176 46.1908 83.0354 46.2943 82.883 46.3763C82.7307 46.4584 82.5588 46.5189 82.3674 46.558C82.1799 46.597 81.9611 46.6166 81.7111 46.6166C81.4455 46.6166 81.1994 46.5755 80.9729 46.4935C80.7463 46.4076 80.549 46.2806 80.3811 46.1127C80.217 45.9408 80.0881 45.7259 79.9943 45.4681C79.9006 45.2064 79.8537 44.8978 79.8537 44.5423C79.8537 43.847 80.0764 43.3353 80.5217 43.0072C80.967 42.6752 81.633 42.4916 82.5197 42.4564L83.5627 42.4212V41.9291C83.5627 41.6595 83.4846 41.4603 83.3283 41.3314C83.1721 41.2025 82.9533 41.138 82.6721 41.138C82.3908 41.138 82.1154 41.1791 81.8459 41.2611C81.5803 41.3431 81.3127 41.4525 81.0432 41.5892L80.4631 40.4056C80.7912 40.222 81.1545 40.0775 81.5529 39.972C81.9514 39.8666 82.3693 39.8138 82.8068 39.8138C83.6232 39.8138 84.2482 40.0052 84.6818 40.388C85.1193 40.7709 85.3381 41.3529 85.3381 42.1341V46.4994H84.09ZM83.5627 43.4642L82.9709 43.4877C82.7326 43.4955 82.5314 43.5267 82.3674 43.5814C82.2033 43.6361 82.0705 43.7103 81.9689 43.8041C81.8713 43.8939 81.799 44.0033 81.7522 44.1322C81.7092 44.2572 81.6877 44.3978 81.6877 44.5541C81.6877 44.8275 81.7541 45.0228 81.8869 45.14C82.0197 45.2533 82.1936 45.3099 82.4084 45.3099C82.5725 45.3099 82.7248 45.2826 82.8654 45.2279C83.0061 45.1693 83.1272 45.0853 83.2287 44.9759C83.3342 44.8627 83.4162 44.7259 83.4748 44.5658C83.5334 44.4017 83.5627 44.2142 83.5627 44.0033V43.4642Z" fill="#FFA500"/>
<path d="M91.5576 44.5541C91.5576 44.8978 91.4951 45.1986 91.3701 45.4564C91.2451 45.7142 91.0673 45.9291 90.8369 46.1009C90.6064 46.2728 90.3271 46.4017 89.999 46.4877C89.6708 46.5736 89.3037 46.6166 88.8974 46.6166C88.6826 46.6166 88.4833 46.6087 88.2998 46.5931C88.1162 46.5814 87.9423 46.5599 87.7783 46.5287C87.6142 46.4974 87.456 46.4584 87.3037 46.4115C87.1513 46.3646 86.997 46.306 86.8408 46.2357V44.7591C87.0048 44.8412 87.1767 44.9154 87.3564 44.9818C87.54 45.0482 87.7216 45.1068 87.9013 45.1576C88.081 45.2044 88.2548 45.2416 88.4228 45.2689C88.5947 45.2962 88.7529 45.3099 88.8974 45.3099C89.0576 45.3099 89.1943 45.2962 89.3076 45.2689C89.4208 45.2377 89.5126 45.1966 89.583 45.1459C89.6572 45.0912 89.7099 45.0287 89.7412 44.9584C89.7763 44.8841 89.7939 44.806 89.7939 44.724C89.7939 44.6419 89.7802 44.5697 89.7529 44.5072C89.7294 44.4408 89.6728 44.3724 89.583 44.3021C89.4931 44.2279 89.3603 44.1459 89.1845 44.056C89.0126 43.9623 88.7802 43.849 88.4873 43.7162C88.2021 43.5873 87.954 43.4603 87.7431 43.3353C87.5361 43.2064 87.3642 43.0638 87.2275 42.9076C87.0947 42.7513 86.9951 42.5736 86.9287 42.3744C86.8623 42.1712 86.829 41.931 86.829 41.6537C86.829 41.349 86.8876 41.0834 87.0048 40.8568C87.122 40.6263 87.288 40.4349 87.5029 40.2826C87.7177 40.1302 87.9755 40.0169 88.2763 39.9427C88.581 39.8646 88.9189 39.8255 89.29 39.8255C89.6806 39.8255 90.0517 39.8705 90.4033 39.9603C90.7548 40.0502 91.1162 40.1849 91.4873 40.3646L90.9482 41.6302C90.6513 41.4896 90.3681 41.3744 90.0986 41.2845C89.829 41.1947 89.5595 41.1498 89.29 41.1498C89.0478 41.1498 88.872 41.1927 88.7626 41.2787C88.6572 41.3646 88.6044 41.4818 88.6044 41.6302C88.6044 41.7084 88.6181 41.7787 88.6455 41.8412C88.6728 41.8998 88.7275 41.9623 88.8095 42.0287C88.8915 42.0912 89.0068 42.1615 89.1552 42.2396C89.3037 42.3138 89.497 42.4056 89.7353 42.515C90.0126 42.6361 90.2626 42.7572 90.4853 42.8783C90.708 42.9955 90.8994 43.1302 91.0595 43.2826C91.2197 43.4349 91.3427 43.6127 91.4287 43.8158C91.5146 44.0189 91.5576 44.265 91.5576 44.5541Z" fill="#FFA500"/>
<path d="M95.6442 45.1927C95.82 45.1927 95.986 45.1732 96.1423 45.1341C96.3024 45.0951 96.4645 45.0462 96.6286 44.9877V46.3177C96.4606 46.4037 96.2517 46.474 96.0017 46.5287C95.7556 46.5873 95.486 46.6166 95.1931 46.6166C94.9079 46.6166 94.6423 46.5834 94.3962 46.5169C94.1501 46.4505 93.9372 46.3353 93.7575 46.1712C93.5778 46.0033 93.4352 45.7806 93.3298 45.5033C93.2282 45.222 93.1774 44.8705 93.1774 44.4486V41.2904H92.322V40.5345L93.3063 39.9369L93.822 38.5541H94.9645V39.9486H96.5583V41.2904H94.9645V44.4486C94.9645 44.7025 95.027 44.89 95.152 45.0111C95.277 45.1322 95.4411 45.1927 95.6442 45.1927Z" fill="#FFA500"/>
<path d="M100.616 41.097C100.299 41.097 100.036 41.2084 99.8246 41.431C99.6176 41.6537 99.4985 42.0033 99.4672 42.4798H101.747C101.743 42.2806 101.717 42.097 101.67 41.9291C101.623 41.7611 101.553 41.6166 101.459 41.4955C101.366 41.3705 101.248 41.2728 101.108 41.2025C100.967 41.1322 100.803 41.097 100.616 41.097ZM100.844 46.6166C100.375 46.6166 99.9438 46.5482 99.5493 46.4115C99.1547 46.2748 98.8149 46.0697 98.5297 45.7962C98.2446 45.5189 98.0219 45.1712 97.8618 44.7533C97.7055 44.3314 97.6274 43.8373 97.6274 43.2709C97.6274 42.6966 97.6996 42.1947 97.8442 41.765C97.9887 41.3353 98.1899 40.9779 98.4477 40.6927C98.7094 40.4037 99.0219 40.1869 99.3852 40.0423C99.7524 39.8978 100.159 39.8255 100.604 39.8255C101.038 39.8255 101.428 39.8919 101.776 40.0248C102.127 40.1537 102.424 40.3451 102.666 40.599C102.913 40.8529 103.1 41.1654 103.229 41.5365C103.362 41.9037 103.428 42.3255 103.428 42.8021V43.6693H99.4321C99.4399 43.9193 99.4789 44.1459 99.5493 44.349C99.6235 44.5482 99.725 44.7181 99.8539 44.8587C99.9868 44.9955 100.145 45.1009 100.329 45.1752C100.516 45.2494 100.729 45.2865 100.967 45.2865C101.166 45.2865 101.354 45.2767 101.53 45.2572C101.709 45.2337 101.883 45.2005 102.051 45.1576C102.219 45.1146 102.385 45.0619 102.549 44.9994C102.713 44.933 102.881 44.8568 103.053 44.7709V46.1537C102.897 46.2357 102.739 46.306 102.579 46.3646C102.422 46.4193 102.256 46.4662 102.081 46.5052C101.905 46.5443 101.715 46.5716 101.512 46.5873C101.309 46.6068 101.086 46.6166 100.844 46.6166Z" fill="#FFA500"/>
<path d="M108.37 39.8255C108.417 39.8255 108.468 39.8275 108.523 39.8314C108.581 39.8314 108.636 39.8353 108.687 39.8431C108.741 39.847 108.79 39.8529 108.833 39.8607C108.88 39.8646 108.915 39.8705 108.939 39.8783V41.5541C108.907 41.5462 108.864 41.5384 108.81 41.5306C108.755 41.5228 108.696 41.5169 108.634 41.513C108.575 41.5052 108.517 41.5013 108.458 41.5013C108.4 41.4974 108.351 41.4955 108.312 41.4955C108.081 41.4955 107.868 41.5248 107.673 41.5834C107.482 41.6419 107.316 41.7377 107.175 41.8705C107.038 41.9994 106.931 42.1712 106.853 42.3861C106.779 42.597 106.741 42.8568 106.741 43.1654V46.4994H104.954V39.9486H106.308L106.571 40.933H106.659C106.753 40.765 106.855 40.6127 106.964 40.4759C107.073 40.3392 107.195 40.224 107.327 40.1302C107.464 40.0326 107.616 39.9584 107.784 39.9076C107.956 39.8529 108.152 39.8255 108.37 39.8255Z" fill="#FFA500"/>
</svg>
