<svg width="32" height="32" viewBox="0 0 32 32" fill="none" xmlns="http://www.w3.org/2000/svg">
<path fill-rule="evenodd" clip-rule="evenodd" d="M13.5081 18.492C11.9481 16.932 10.7721 15.1854 9.99078 13.4134C9.82678 13.0387 9.92278 12.6 10.2121 12.3107L11.3041 11.2187C12.1988 10.324 12.1988 9.05871 11.4174 8.27737L9.85345 6.71337C8.81211 5.67204 7.12411 5.67204 6.08278 6.71337L5.21345 7.58137C4.22545 8.56937 3.81345 9.99471 4.08011 11.408C4.73878 14.892 6.76278 18.7067 10.0281 21.972C13.2934 25.2374 17.1081 27.2614 20.5921 27.92C22.0054 28.1867 23.4308 27.7747 24.4188 26.7867L25.2868 25.9187C26.3281 24.8774 26.3281 23.1894 25.2868 22.148L23.7228 20.584C22.9414 19.8027 21.6748 19.8027 20.8948 20.584L19.6908 21.7894C19.4014 22.0787 18.9628 22.176 18.5881 22.0107C16.8161 21.228 15.0681 20.0507 13.5081 18.492Z" stroke="#FFA500" stroke-width="1.5" stroke-linecap="round" stroke-linejoin="round"/>
<path d="M24.1587 9.33325H22.1587V7.33325" stroke="#FFA500" stroke-width="1.5" stroke-linecap="round" stroke-linejoin="round"/>
<path d="M26.4381 5.5621C28.5209 7.6449 28.5209 11.0218 26.4381 13.1046C24.3553 15.1874 20.9784 15.1874 18.8956 13.1046C16.8128 11.0218 16.8128 7.64489 18.8956 5.5621C20.9784 3.4793 24.3553 3.4793 26.4381 5.5621" stroke="#FFA500" stroke-width="1.5" stroke-linecap="round" stroke-linejoin="round"/>
</svg>
