<svg width="60" height="60" viewBox="0 0 40 40" fill="none" xmlns="http://www.w3.org/2000/svg">
<path d="M23.5246 31.4571C22.8407 32.0971 21.0343 33.5524 20.0396 33.7024C19.0892 33.8457 16.4154 31.5273 15.8026 30.9413L15.0906 30.2367C14.9013 30.0453 14.7135 29.842 14.4903 29.6858C13.9461 29.7352 13.4084 29.8756 12.8871 30.0289L11.4197 30.5036C9.09123 31.322 6.83588 32.4087 6.33531 34.9296L6.25822 35.461C6.13492 36.2049 5.24782 36.1302 5.14311 35.5337C5.01306 34.7926 5.76333 33.0727 6.1838 32.5026C7.49278 30.7278 10.2731 29.6302 12.4326 29.038L13.4456 28.7878C13.7871 28.7164 14.1865 28.6849 14.5037 28.5448C15.3764 28.1595 15.7536 26.9724 15.9356 26.1604C16.2139 24.9189 15.1497 25.8682 14.4426 25.1174C14.1989 24.8586 14.3015 24.8844 13.9318 24.8926L13.1247 24.9097C12.9664 24.9127 12.8021 24.9243 12.6448 24.9086C10.9047 24.7356 10.0477 23.0395 9.97122 21.527L9.93138 21.5157C9.05262 21.3141 8.51285 20.1928 8.41509 19.4177C8.33709 18.7992 8.35812 17.2387 8.44974 16.6646C8.57648 15.8706 9.23866 15.0185 10.0474 14.7752C10.3269 14.6912 10.2139 14.632 10.2112 14.3597C10.2041 13.6251 10.2038 12.934 10.3401 12.2095C11.1308 8.00731 14.7779 4.24418 19.4042 4.01202L19.705 4.00268C20.098 4.00078 20.4999 3.99009 20.8908 4.03061C25.7669 4.53603 29.2419 8.62426 29.6826 13.1425C29.7331 13.66 29.7073 14.1972 29.7089 14.7174C29.7884 14.753 29.8736 14.7627 29.9563 14.7892C30.563 14.9837 31.1086 15.6418 31.3247 16.1856C31.4625 16.5325 31.4877 16.9152 31.4983 17.2819L31.5065 18.3476C31.5058 19.2484 31.4849 20.2812 30.7873 20.9761C30.3532 21.4086 29.5987 21.7438 28.9572 21.7553C28.652 21.7608 28.3473 21.6357 28.0687 21.528C27.3457 21.2485 27.5246 20.9918 27.6302 20.3734L27.8724 18.4415L27.8842 16.6605C27.7509 16.7599 27.5493 16.7642 27.3997 16.8622C27.641 20.1153 26.3155 23.7521 24.231 26.2964C24.0664 26.4974 24.1475 26.5522 24.1926 26.7935C24.4209 28.0144 24.95 28.4846 26.1439 28.7175L27.012 28.9061C27.6444 29.0722 28.2631 29.2842 28.8775 29.5021C31.7096 30.5067 34.0571 31.7589 34.676 34.7711C34.7247 35.0084 34.7874 35.2732 34.7693 35.5156C34.7274 36.0789 33.9221 36.1624 33.7027 35.6591C33.6116 35.4503 33.6216 35.1676 33.5807 34.943C33.1121 32.3659 30.6718 31.2476 28.3194 30.4386C27.3316 30.0988 26.3776 29.8167 25.3355 29.6899C25.1509 29.8287 24.9802 30.0407 24.8147 30.2043L23.5246 31.4571ZM19.8184 5.06721C15.0916 5.0639 11.3429 9.4733 11.3413 13.8131C11.3412 14.0249 11.2857 14.4917 11.4496 14.6453C11.5834 14.7706 12.0602 14.6629 12.1935 14.5295C12.2532 14.4697 12.2298 14.0901 12.2316 13.9915C12.3009 10.1466 15.2459 7.24728 19.2028 6.98626L20.1717 6.97221C21.3835 6.99497 22.6443 7.22554 23.7317 7.75087C26.0099 8.85165 27.5234 11.2675 27.6514 13.6852L27.6685 14.2649C27.6724 14.3328 27.6722 14.4156 27.7195 14.4688L27.7341 14.4863C27.8359 14.6059 28.0065 14.6894 28.1673 14.7044C28.5933 14.7444 28.5979 14.5467 28.5968 14.1847L28.5396 13.0224C28.4685 12.5975 28.4087 12.1839 28.2957 11.7652C27.4231 8.53102 24.8138 5.81973 21.3252 5.18164C20.8413 5.09312 20.3126 5.03532 19.8184 5.06721ZM19.5642 8.05528C17.5809 8.11753 15.8095 8.87081 14.6057 10.4303C14.064 11.1324 13.4448 12.6095 13.3858 13.5249C13.7194 13.347 14.0231 13.1333 14.3672 12.9686C16.3795 12.005 18.2067 11.7979 20.3872 11.8016C22.5478 11.8255 24.7292 12.3895 26.5269 13.5451C25.9747 9.88729 23.3728 7.92697 19.5642 8.05528ZM19.7865 12.9027C17.1117 12.8848 14.9554 13.5702 12.9864 15.2525L12.4463 15.7171C13.1607 15.9387 14.4679 16.3003 15.2206 16.0722L15.7124 15.9349C17.3917 15.396 18.3067 15.1486 20.1635 15.1531C21.274 15.1548 22.3794 15.3341 23.4362 15.662L24.2391 15.9369C25.4347 16.3643 26.2325 16.1086 27.4281 15.7332L27.4361 15.7229C27.0779 15.418 26.753 15.0819 26.3775 14.7944C24.6075 13.4396 22.3696 12.9132 20.1393 12.8984C20.0394 12.8977 19.8987 12.8791 19.8025 12.8972L19.7865 12.9027ZM10.7987 15.6907C9.34291 16.0052 9.51308 17.0674 9.51475 18.2078C9.51583 18.9645 9.42115 19.9017 10.1473 20.4045C10.2372 20.4545 10.3161 20.487 10.4156 20.5179L10.4435 20.5271C10.6331 20.5868 10.8896 20.5666 11.0914 20.5715C11.0364 19.9855 10.9016 19.4076 10.8527 18.82L10.7994 16.511C10.8143 16.2372 10.8782 15.9689 10.8936 15.6963C10.8561 15.6794 10.8391 15.687 10.7987 15.6907ZM28.9688 15.735C29.0642 16.7139 29.0715 17.9397 28.9798 18.9195L28.7893 20.5764C29.1934 20.6084 29.5306 20.5722 29.8629 20.3412C30.2665 20.0054 30.3297 19.5874 30.3645 19.1026L30.388 17.9641C30.3872 17.0137 30.4302 15.8007 29.0549 15.7373L28.9688 15.735ZM19.7255 16.2314C18.9136 16.2638 18.1139 16.3586 17.3272 16.5586C15.8815 16.9261 15.1763 17.3723 13.6099 17.1889L13.6241 18.3145C13.7331 20.0529 14.2797 21.7892 14.9377 23.4017L15.2235 24.0928C15.2592 24.1819 15.2866 24.3118 15.3418 24.3883C15.4492 24.3963 16.3211 24.522 16.3423 24.5167C16.635 23.8913 17.0922 23.4615 17.8512 23.8014L18.4562 24.0969C18.8713 24.2849 19.3826 24.4408 19.7415 24.7131C20.6913 25.4334 19.6829 27.6647 17.562 26.594L17.1897 26.387L17.0015 26.2899C17.0173 26.4262 17.0889 26.503 17.1971 26.5869C18.0483 27.2465 19.485 27.4147 20.5279 27.2857L20.5939 27.2728C22.1244 26.9496 22.4442 26.7936 23.4627 25.4904L24.1237 24.5993C25.6275 22.3991 26.2982 19.7902 26.2909 17.1845L26.2734 17.1889C25.2836 17.425 24.2316 17.09 23.3168 16.7683C22.1603 16.3617 20.9562 16.2141 19.7255 16.2314ZM11.8932 16.5751C11.9721 17.371 11.916 18.1244 12.0024 18.9497L12.1793 20.1984C12.2822 20.8134 12.5648 21.5872 11.5823 21.624L11.1052 21.6157C11.1963 22.5708 11.6048 23.6179 12.7246 23.7708C13.0851 23.8523 13.5178 23.8348 13.8863 23.8242L13.8698 23.7998C13.8254 23.7295 13.8193 23.6267 13.7921 23.5482L13.5928 23.0151C12.9193 21.208 12.5048 19.6436 12.506 17.7328L12.5085 16.9307C12.5092 16.906 12.5216 16.8735 12.4964 16.8634L11.8932 16.5751ZM17.4628 24.7988C17.3912 24.929 17.3224 25.061 17.309 25.2098C17.3935 25.4456 18.4478 25.9064 18.7559 25.8059L18.803 25.7894C18.8984 25.724 18.94 25.6611 18.996 25.5655C18.8106 25.4289 17.7153 24.8829 17.4628 24.7988ZM16.6397 27.5321C16.4164 28.1744 16.0674 28.6482 15.5524 29.1061C16.8065 30.409 18.2465 31.8753 19.9558 32.6413C20.8284 32.2292 21.7027 31.5828 22.4203 30.9691L24.2873 29.1353C24.2693 29.0944 24.2186 29.0636 24.1844 29.0338C23.7433 28.6501 23.4176 28.0933 23.2468 27.554C21.5036 28.3983 19.7203 28.6684 17.8517 28.0844C17.4282 27.9521 17.0026 27.7832 16.6397 27.5321Z" fill="#FFA500"/>
</svg>
