<svg width="60" height="60" viewBox="0 0 40 40" fill="none" xmlns="http://www.w3.org/2000/svg">
<path d="M21.3344 15.9744C20.2769 16.2996 19.0996 16.0877 18.2675 15.3256C17.7482 16.2062 15.5995 17.0639 14.701 17.5716C15.3426 19.1603 15.3772 20.4901 14.822 22.07C14.309 23.5301 13.4116 25.1878 11.7161 25.444C10.0881 25.69 8.8347 24.6442 8.1098 23.2945C7.15738 21.5212 6.75969 19.012 8.0701 17.3043C9.52265 15.4114 12.0968 15.2594 13.9316 16.6952L15.847 15.6951C16.4408 15.3832 17.0169 15.0721 17.471 14.5665C17.2384 14.1071 16.9267 13.6928 16.6904 13.2339C16.3282 12.5304 16.0866 11.7574 15.9354 10.9816C15.8498 10.5419 15.7738 10.0778 15.7654 9.62958L15.7661 8.85522C15.8371 6.15073 17.5203 3.92381 20.3715 4.002C23.8636 4.03228 25.2702 6.71907 24.9587 10.0041C24.8501 11.1496 24.5737 12.2384 24.0553 13.2714C23.8307 13.719 23.5254 14.1003 23.2664 14.5245C23.9525 15.4243 25.2142 15.8275 26.1804 16.3285C27.539 13.7603 31.2385 13.4773 32.9621 15.8926C33.8145 17.087 33.9577 18.62 33.7151 20.0335C33.3685 22.0535 31.8844 25.9432 29.2075 25.4537C27.3062 25.106 26.151 22.4625 25.7397 20.7147C25.4747 19.588 25.5033 18.4881 25.7121 17.3626C24.6137 16.848 23.2814 16.3268 22.4846 15.3631C22.1224 15.6266 21.7533 15.8199 21.3344 15.9744ZM20.2116 5.15071C16.7818 5.36841 16.3886 8.91322 17.2686 11.6316C17.6965 12.9536 18.8501 15.1224 20.5222 14.9876L20.5642 14.9825C22.8703 14.6042 23.8722 11.173 23.87 9.20079C23.8697 8.94217 23.8788 8.66683 23.8396 8.41074L23.7351 7.78044C23.3501 5.96876 22.0009 5.12979 20.2116 5.15071ZM29.4758 15.4329C26.0169 15.7887 26.3411 19.6085 27.3984 22.074C27.8362 23.0947 28.579 24.4733 29.8857 24.3288C31.0381 24.0952 31.8279 22.3413 32.1875 21.3458C32.5767 20.2685 32.8514 19.0236 32.6165 17.8809C32.3257 16.4668 30.9691 15.1883 29.4758 15.4329ZM11.0391 16.8816C6.51389 17.2805 8.50675 24.6368 11.4222 24.3518C13.2318 24.0566 14.0526 21.5189 14.056 19.8754C14.0598 18.0094 12.9062 16.8003 11.0391 16.8816Z" fill="#FFA500"/>
<path d="M15.9288 36C15.505 35.9991 15.1723 36.0072 14.7763 35.8349C14.0042 35.499 13.312 34.6931 13.2238 33.8326C13.1607 33.2172 13.3078 31.6363 13.5828 31.0249L4.44445 31.004C3.22152 31.0075 2.83973 31.1589 3.0583 29.6218C3.19805 28.639 3.42996 27.663 3.72687 26.7161C4.48674 24.2928 4.96066 24.0943 7.09632 23.1033C7.4892 22.921 7.89481 22.6943 8.31611 22.5894C8.66535 22.5024 8.79094 22.603 9.00533 22.8664C9.3422 23.2802 9.64867 23.6695 10.1195 23.9457C11.3854 24.6883 12.628 24.1522 13.434 23.0772C13.5825 22.879 14.0083 22.55 14.0083 22.55L14.0376 22.5431C14.3495 22.4629 14.9507 22.8181 15.1546 23.0826L15.1731 23.0744C15.1123 21.9692 15.1741 20.7387 15.4783 19.6661C16.1095 17.4408 17.9472 15.4502 20.3668 15.3364L20.4034 15.3356C22.9261 15.304 24.9637 17.461 25.5423 19.7869C25.6498 20.2187 25.6906 20.6503 25.7233 21.0923L25.798 23.1387C25.8537 23.0728 25.9072 23.0646 25.9722 23.0183C27.0531 22.2492 27.337 22.3778 28.1803 23.3833C29.2833 24.6986 30.3179 24.7051 31.3546 23.331C32.1246 22.3106 32.2161 22.3156 33.4241 22.8286L34.4528 23.2847C36.5684 24.2692 37.3198 25.0772 37.7553 27.3586C37.8669 27.9431 37.9421 28.5379 37.9709 29.1325L37.9853 30.0404C37.9941 31.2705 37.4156 31.0023 36.4312 31.0019L27.3128 31.005C27.5057 31.3134 27.694 33.1561 27.6934 33.5425C27.6907 35.0403 26.4501 35.9931 25.0282 35.9989L15.9288 36ZM20.1805 16.5109C19.1309 16.6258 18.2885 17.1801 17.6341 17.9931C16.6482 19.218 16.4781 20.1155 16.3324 21.5987C16.2781 22.1515 16.2316 22.7547 16.2931 23.3088C16.3532 23.8514 16.6652 23.9646 17.1799 23.9575C16.5973 22.8315 16.1906 20.5246 17.5804 19.8184C17.9245 19.6436 18.3346 19.6117 18.7015 19.4982C19.5364 19.24 20.3545 18.8306 21.0747 18.3376C22.3852 17.5312 22.5485 18.9439 23.223 19.6603C23.4813 19.9346 23.8557 20.1728 24.0582 20.487C24.5011 21.1739 24.1202 23.1893 23.7137 23.9877C24.0696 23.9413 24.3601 23.9181 24.6336 23.6652C24.6687 23.5249 24.6654 23.3747 24.6667 23.2308L24.6095 21.1782C24.444 19.1867 23.3372 17.0923 21.268 16.5854C20.9126 16.4983 20.5444 16.489 20.1805 16.5109ZM21.5835 19.3568C21.1061 19.7502 20.6245 19.9798 20.0489 20.2008L18.7939 20.6552C18.3366 20.8123 17.827 20.8196 17.7703 21.3834C17.6455 22.6244 18.4249 24.6952 19.5799 25.3274C21.6592 26.354 23.1344 23.4334 23.1393 21.7435C23.1418 20.8946 22.6235 20.7416 22.1592 20.1664C21.9557 19.9144 21.7903 19.6324 21.6278 19.353L21.5835 19.3568ZM26.9073 23.6957C26.0873 24.4718 24.8536 25.0827 23.7145 25.1022C23.1214 25.1123 23.3658 25.1354 22.9303 25.5506C22.4392 26.0187 21.8719 26.42 21.2054 26.5891L20.7405 26.6689C19.668 26.8024 18.7056 26.2527 17.9881 25.5044L17.7546 25.2514C17.5981 25.0801 16.9737 25.1106 16.7315 25.0696C15.8264 24.9169 15.0271 24.3308 14.3011 23.7989C12.7974 25.9672 9.8274 25.9473 8.29671 23.7778C7.47593 24.2624 6.39003 24.4797 5.70737 25.1652C4.89278 25.983 4.3168 28.5662 4.21976 29.6404C4.21412 29.7028 4.18931 29.8171 4.20791 29.8739L14.0019 29.8769C14.0526 29.8007 14.0571 29.7234 14.0872 29.6399C14.2848 29.0914 14.6351 28.5467 14.98 28.0833C15.5148 27.408 17.3084 25.2114 18.2075 25.1022C19.162 24.9862 18.6863 25.1417 19.2213 25.7271C20.1642 26.7585 20.7333 26.6118 21.6473 25.5506C21.8165 25.3542 22.3107 25.6999 22.4801 25.5044C23.7341 24.0567 25.9405 27.9486 26.5046 28.9791L26.7868 29.5484C26.8319 29.6484 26.8586 29.8025 26.9298 29.8785L36.8757 29.8727C36.738 25.8421 36.143 25.0595 32.5081 23.7008C30.6256 26.2626 28.9214 26.059 26.9073 23.6957ZM22.3715 25.5044C22.2494 25.6932 21.9285 25.5479 21.7921 25.7271C21.2054 26.0547 20.9956 26.7771 19.5799 26.3426L19.2213 26.1978C19.2213 25.5506 18.9269 25.947 18.7868 25.9805C17.34 26.3271 14.8524 30.5036 14.5605 31.7748C14.425 32.3648 14.2242 33.2498 14.3816 33.8489C14.5295 34.412 15.0284 34.8178 15.601 34.8568L25.2241 34.8586C26.2103 34.8061 26.6278 34.0949 26.5801 33.2007C26.4843 31.401 23.8815 26.3766 22.1904 25.7271L22.3715 25.5044Z" fill="#FFA500"/>
</svg>
