<svg width="60" height="60" viewBox="0 0 40 40" fill="none" xmlns="http://www.w3.org/2000/svg">
<path d="M11.5923 11.2137C10.8191 11.2676 10.2826 10.7701 10.1372 10.0362L10.1079 9.84774C10.0594 9.51806 10.0749 9.16927 10.0735 8.83634L10.072 5.78712C10.0723 5.45725 10.0543 5.11616 10.1046 4.78965C10.2035 4.14674 10.752 3.63913 11.3886 3.55412C12.1856 3.50393 12.762 4.26359 12.8542 4.99452C12.8887 5.26813 12.8778 5.54913 12.878 5.82453L12.8781 9.76886C12.8459 10.5035 12.2894 11.0456 11.5923 11.2137ZM11.3503 4.7562C11.1228 4.93779 11.2177 5.26559 11.2198 5.52571L11.2324 9.73381C11.2433 9.95237 11.342 10.0763 11.5773 9.98808C11.684 9.88906 11.721 9.78399 11.7263 9.64187L11.7279 5.74115C11.7276 5.49838 11.8228 4.61033 11.3503 4.7562Z" fill="#FFA500"/>
<path d="M29.4755 11.2089C28.985 11.2048 28.4983 10.9151 28.2576 10.4884C27.9206 9.89127 28.0668 8.53861 28.0666 7.84319L28.0684 5.40139C28.0749 4.53148 28.4779 3.64913 29.451 3.55527C30.1972 3.50198 30.8221 4.24951 30.8512 4.95814L30.8594 9.29729C30.8599 9.53193 30.8915 9.83446 30.8272 10.0591C30.648 10.6847 30.145 11.1676 29.4755 11.2089ZM29.4171 4.7931C29.2375 4.87015 29.2298 5.14514 29.2213 5.31007L29.2154 8.94945C29.2154 9.19251 29.0822 10.0632 29.5192 9.97074C29.8391 9.81527 29.731 9.2978 29.731 9.0149L29.7226 5.12313C29.7136 4.90437 29.6571 4.75563 29.4171 4.7931Z" fill="#FFA500"/>
<path d="M26.8975 7.91849L15.4094 7.92209C14.9805 7.92234 13.1708 7.95313 12.7443 7.92209C12.1735 7.88057 11.4181 6.85765 12.5598 6.78025H28.3133C28.8632 6.79953 28.9203 7.36356 28.6085 7.7907C28.4816 7.96452 27.0975 7.88927 26.8975 7.91849Z" fill="#FFA500"/>
<path d="M34.7874 27.1094C34.5516 27.5327 34.2477 27.9294 33.9769 28.3312L29.9759 34.1054C29.3775 34.8843 29.0386 35.4281 27.8856 35.5216C27.4491 35.557 27.0052 35.5432 26.5674 35.5438L9.44678 35.5435C9.02236 35.5435 8.534 35.5851 8.1194 35.4812C5.91942 34.9298 5.53049 33.4594 5.52704 31.3559L5.52525 11.2479C5.52514 10.7771 5.49412 10.283 5.53633 9.81557C5.67395 8.29201 6.87444 7.03339 8.40094 6.83928L8.57528 6.83147C8.72707 6.83147 8.94422 6.83929 9.12868 6.83928L10.2355 6.83928C10.5202 6.92064 10.5675 7.16351 10.5675 7.68002C10.5675 8.19653 10.1986 7.93828 8.42076 8.02662C7.39864 8.19402 6.69528 9.1188 6.67329 10.1254L6.67036 10.8888C6.67038 11.2788 6.65554 11.6761 6.68085 12.0651L34.2396 12.0721L34.2427 10.8684C34.2416 9.60579 34.1293 8.28898 32.593 8.01206C30.6745 8.01206 30.5956 8.03244 30.3794 7.93828C29.941 7.74735 30.2318 7.26328 30.3056 6.83147C30.6745 6.80962 31.892 6.80381 32.2624 6.80962C33.8256 6.83417 35.3163 8.25726 35.3875 9.81424L35.3939 24.3752C35.3925 25.3836 35.2738 26.1879 34.7874 27.1094ZM6.67029 13.2138L6.67115 31.7993C6.67263 32.2731 6.68288 32.6992 6.86053 33.1447C7.10465 33.757 7.75949 34.3026 8.42732 34.3861C8.76981 34.429 9.13415 34.4064 9.47947 34.4064L27.3301 34.4107C27.4833 34.4114 27.6382 34.4204 27.7876 34.3821L27.8079 34.3772C28.232 34.2635 28.5245 33.9392 28.6007 33.5191L28.9156 31.4579C29.1305 29.9047 29.3955 28.3408 30.6197 27.2354C31.2796 26.6395 32.1036 26.2723 32.9844 26.1596L33.5881 26.1116C33.8368 26.1022 33.9265 26.1672 34.0482 25.928C34.1477 25.7322 34.2215 25.5004 34.2339 25.2806L34.2442 13.5918C34.2449 13.4698 34.2637 13.3322 34.2508 13.2122L6.67029 13.2138ZM33.2619 27.3166C31.0201 27.6584 30.5329 28.9085 30.1598 30.9211L29.9582 32.205L33.2911 27.3351C33.2816 27.3287 33.2723 27.3216 33.2619 27.3166Z" fill="#FFA500"/>
<path d="M20.6257 30.9233C19.825 30.9486 19.0374 30.74 18.8555 29.8539C18.6885 29.04 18.7048 29.0489 17.8133 28.7737C17.232 28.5942 17.2696 28.705 16.8047 29.0569C15.6085 29.9622 13.5871 27.7607 14.5586 26.4402C15.0227 25.8094 15.0517 26.0334 14.7271 25.2311C14.6028 24.9239 14.5705 24.7079 14.2246 24.6294C13.1676 24.3896 12.6643 24.2711 12.5507 23.0272C12.481 22.2635 12.8447 21.5349 13.5651 21.2261C14.4414 20.8507 14.3781 21.3492 14.7536 20.3672L14.8968 20.0343C15.0043 19.7932 14.6731 19.551 14.5526 19.3568C13.9228 18.3418 14.9685 16.8602 16.0916 16.7777C16.5877 16.7412 16.9617 17.0553 17.315 17.3554C17.5522 17.5569 18.524 17.276 18.7369 17.05C18.9937 16.7772 18.6474 15.4385 20.3925 15.3061C21.2101 15.2701 21.9121 15.6597 22.1151 16.4985C22.1506 16.6453 22.1689 16.8115 22.2218 16.9526C22.3338 17.251 23.3104 17.583 23.6147 17.3993C23.7883 17.2946 23.9356 17.1388 24.1033 17.0232C25.0808 16.3497 26.1339 17.201 26.4748 18.1585C26.7864 19.0335 26.324 19.2176 25.9935 19.9238C26.0685 20.2065 26.3409 20.8872 26.5633 21.0871C26.686 21.1975 27.0384 21.1703 27.2072 21.2043C28.5962 21.4843 29.0098 24.1278 27.1843 24.5332L26.7032 24.6224C26.4006 24.6915 25.9801 25.7202 25.9951 25.9622C26.001 26.0575 26.4587 26.5468 26.5415 26.6822C27.2984 27.9187 25.2894 29.9459 23.9694 28.9781C23.8446 28.8865 23.7382 28.7738 23.61 28.6863C23.1469 28.7398 22.786 28.8583 22.3829 29.0966C22.184 29.2142 22.185 29.2024 22.1603 29.4229C22.0512 30.3955 21.629 30.8435 20.6257 30.9233ZM20.2032 16.561L20.0175 16.5776C19.9821 16.6267 19.9758 16.693 19.9626 16.7513L19.8672 17.1429C19.7976 17.3835 19.7006 17.6126 19.5384 17.8061C19.1129 18.3134 17.9102 18.733 17.2241 18.5765C16.8391 18.4886 16.3013 17.9863 16.1666 17.9702C16.0325 17.9541 15.6101 18.3545 15.5296 18.4642L15.4755 18.541C15.6434 18.9165 15.9651 19.2065 16.0422 19.6249C16.1135 20.0121 15.9821 20.4387 15.8457 20.797C15.3858 22.0059 15.104 22.1073 13.9576 22.2998C13.618 22.3568 13.7478 23.1334 13.8117 23.3677C14.0155 23.4383 14.2231 23.4365 14.4321 23.4755C15.0558 23.592 15.4192 24.0269 15.6813 24.5678C16.0408 25.3098 16.2733 25.955 15.8277 26.6978C15.7771 26.7825 15.4104 27.2799 15.412 27.3385C15.6138 27.6321 15.8785 27.8878 16.1291 28.1399C16.9319 27.3291 17.5109 27.3219 18.5042 27.7349C19.5512 28.1702 19.8076 28.62 20.0374 29.7417L20.7128 29.7286L20.9445 29.7082C21.1466 28.9312 21.2589 28.3766 22.0301 27.9246C22.5537 27.6177 23.2726 27.3548 23.8823 27.5208C24.2687 27.626 24.514 27.9119 24.8587 28.0859C25.1103 27.8778 25.3388 27.6003 25.5369 27.3398C25.1577 26.8462 24.7873 26.4132 24.8679 25.7483C24.9635 24.9596 25.5228 23.7683 26.3474 23.5032C27.1116 23.2574 27.3839 23.571 27.1708 22.4482C26.3004 22.1451 25.7657 22.2832 25.2418 21.1899C25.0027 20.6907 24.7342 19.9741 24.9327 19.4246C25.0425 19.1205 25.2736 18.8696 25.4358 18.593C25.2911 18.3228 25.0949 18.1337 24.8484 17.9526C24.314 18.3221 23.8408 18.7285 23.1431 18.602C22.2203 18.4347 21.2894 18.0166 21.0607 17.0166L21.0019 16.7007C20.961 16.4979 20.3809 16.5494 20.2032 16.561Z" fill="#FFA500"/>
</svg>
