<svg width="60" height="60" viewBox="0 0 40 40" fill="none" xmlns="http://www.w3.org/2000/svg">
<path d="M20.7263 27.9973C20.4161 28.0338 20.1172 27.9173 19.8296 27.8178L14.553 36.9898C14.3301 37.3549 14.0878 37.8345 13.635 37.9538C13.167 38.0772 12.5461 37.8047 12.3131 37.3843C12.1732 37.1317 12.1331 36.8157 12.0818 36.5357L11.8316 34.9737C11.6531 33.7509 11.694 33.289 10.356 33.5589L9.05842 33.8304C8.54557 33.9218 8.00838 34.0236 7.52847 33.7602C6.94478 33.4399 6.89074 32.8097 7.14279 32.2691C7.53667 31.4243 8.03374 30.6146 8.47657 29.7931L10.8759 25.3395C10.9941 25.1262 11.5821 24.1882 11.5006 24.1214L11.3593 24.0016C10.6734 23.3894 10.4946 22.4912 9.96721 21.775C9.82684 21.5844 9.65396 21.4143 9.49393 21.2396C8.27276 19.9062 8.14486 19.2134 8.21555 17.5402C8.25206 16.6759 8.09976 16.5293 7.78011 15.7546C7.24988 14.4695 7.44629 13.1269 8.18931 11.9538C8.82308 10.9531 8.95676 10.6407 9.11285 9.47325C9.32573 7.88109 10.1999 6.80659 11.6273 6.09745C12.7313 5.54898 12.6739 5.49071 13.4176 4.56506C14.0707 3.75227 14.9933 3.15053 16.0511 3.00079C16.6635 2.91408 17.3193 3.11011 17.9159 2.93494C18.8228 2.66866 19.185 2.14602 20.2792 2.01993C21.3456 1.89135 22.0092 2.41119 22.8788 2.82619C23.2551 3.00583 23.5912 2.99304 24.0029 2.98716L24.8512 2.98667C26.0545 3.02398 27.0771 3.89625 27.7706 4.78717C28.4999 5.72405 28.8681 5.7669 29.8741 6.34165C30.9433 6.95248 31.6791 7.99647 31.8789 9.20488C32.0017 9.94747 32.0564 10.6314 32.4259 11.3074C32.5759 11.5818 32.7644 11.8336 32.9272 12.1004C33.6142 13.2269 33.7595 14.592 33.221 15.8133C32.8699 16.6095 32.7554 16.7569 32.8086 17.6293C32.8949 19.0467 32.7734 19.8442 31.7408 21.0009C31.4794 21.2937 31.1654 21.5749 30.9535 21.9045C30.6429 22.3873 30.5224 22.9541 30.1765 23.4248C29.9792 23.6934 29.7364 23.9223 29.489 24.145L33.7447 31.9802C33.9512 32.3922 34.0912 32.7541 33.9297 33.2122C33.4751 34.5019 31.4323 33.6604 30.4066 33.5247C29.3038 33.3787 29.3442 33.9096 29.2132 34.8336L29.0265 36.0634C28.9266 36.6926 28.8569 37.5509 28.198 37.8661C27.1648 38.3604 26.6717 37.3804 26.2353 36.645L21.2121 27.8228C21.0517 27.8988 20.8997 27.9558 20.7263 27.9973ZM20.3248 3.19049C19.5478 3.26704 18.9939 3.77995 18.2688 3.98982C17.6113 4.18012 16.9874 4.05053 16.3237 4.10764C14.5685 4.25868 14.2421 5.73384 13.0927 6.56747C12.6826 6.86489 12.2061 7.05064 11.7698 7.30419C11.0619 7.71555 10.4392 8.42019 10.2904 9.23448C10.0892 10.3356 10.1535 10.974 9.48728 12.0566C9.22445 12.4837 8.89551 12.8876 8.74813 13.372C8.41936 14.4522 8.69603 14.9102 9.09552 15.851C9.44658 16.6777 9.39164 17.1511 9.32017 18.0051C9.1774 19.7101 10.2081 20.0686 10.9463 21.1995C11.3176 21.7683 11.4898 22.4901 11.9587 22.991C12.4923 23.5611 13.309 23.7602 13.9162 24.2359C14.5873 24.7616 14.9559 25.553 15.754 25.9434C16.6512 26.3822 17.4894 25.9702 18.3876 26.1202C19.1413 26.246 20.0478 26.8246 20.7307 26.7371C21.3801 26.629 21.9444 26.2658 22.5936 26.1359C23.7221 25.91 24.5464 26.5456 25.6868 25.719C26.2808 25.2884 26.5959 24.5977 27.2168 24.1767C27.937 23.6883 28.7501 23.4594 29.2811 22.7284C29.6203 22.2614 29.7499 21.6714 30.0777 21.1872C31.0092 19.8117 31.803 19.8142 31.683 17.8899C31.6354 17.127 31.6598 16.4085 31.9944 15.703C32.6997 14.2158 32.5104 13.5687 31.6592 12.236C31.2238 11.5544 30.9396 10.8797 30.8249 10.0778C30.6807 9.06904 30.6567 8.2449 29.6647 7.55563C28.7604 6.92715 27.997 6.81574 27.1726 5.83679C26.5616 5.11124 26.1668 4.48908 25.1958 4.1909C24.66 4.02637 24.0979 4.14122 23.5482 4.11416C22.3367 4.0545 21.4733 3.05578 20.3248 3.19049ZM12.5525 24.7001L8.77201 31.6315C8.5548 32.023 8.33709 32.4124 8.18002 32.8322C8.86669 32.7993 9.54457 32.5564 10.219 32.4297C11.225 32.2408 12.2977 32.4333 12.7205 33.4985C12.8704 33.8762 12.8785 34.3155 12.9427 34.714L13.2827 36.6533C13.3545 36.9909 13.4621 36.6522 13.592 36.4328L18.2437 28.305C18.4179 27.9951 18.6162 27.6674 18.7487 27.3379C18.4453 27.2293 18.1083 27.2557 17.7904 27.2668L16.9919 27.2759C15.7674 27.2842 14.857 26.9431 14.0155 26.0062C13.4315 25.3558 13.3148 25.1848 12.5525 24.7001ZM28.4755 24.736C27.0022 25.5024 26.7183 27.0684 24.7314 27.2643C24.0759 27.3289 22.8312 27.0939 22.287 27.3463L27.4488 36.4841L27.6833 36.8411C27.7983 36.5323 27.8384 36.2093 27.8916 35.886L28.0942 34.5599C28.2267 33.6165 28.2758 32.9873 29.2386 32.5481C29.8963 32.2481 30.5105 32.3747 31.1877 32.5181L32.1589 32.7148C32.3987 32.7614 32.639 32.8122 32.8833 32.8291L28.4755 24.736Z" fill="#FFA500"/>
<path d="M21.0287 24.3165C20.5738 24.3347 20.0984 24.3431 19.645 24.3039C14.9886 23.9016 11.3217 20.2371 11.0002 15.6189C10.6382 10.4187 14.7609 5.93234 20.0287 5.63948C20.4564 5.63001 20.8878 5.61767 21.3142 5.6568C25.6314 6.05299 29.0661 9.14509 29.8879 13.3391C30.9685 18.8533 26.6894 24.0936 21.0287 24.3165ZM20.1039 6.76963C14.673 7.12657 10.8027 12.3244 12.5314 17.4908C13.7809 21.2248 17.0935 23.3309 20.9922 23.1923C26.2286 22.9056 30.1307 17.7936 28.5742 12.7916C27.5431 9.47743 24.707 7.04014 21.1333 6.77826C20.7946 6.75343 20.4436 6.76205 20.1039 6.76963Z" fill="#FFA500"/>
<path d="M23.6084 19.2384C21.8462 19.1881 21.2807 17.926 21.0653 16.3581L20.9848 15.7065C20.8837 14.3257 20.9217 12.056 21.8347 11.036C22.2618 10.5588 22.8322 10.345 23.4629 10.3032C25.5316 10.2441 25.9853 12.5134 26.0752 14.1236L26.087 15.0495C26.0844 16.7807 25.8003 19.1274 23.6084 19.2384ZM23.4273 11.4523C21.9972 11.7167 22.1888 13.8077 22.1901 14.9249C22.1912 15.9827 22.2059 18.1174 23.6489 18.1128C24.9714 17.9754 24.8329 15.7362 24.8325 14.7898C24.8322 13.8912 24.9318 11.2648 23.4273 11.4523Z" fill="#FFA500"/>
<path d="M16.4746 19.1748L15.8735 19.1728C15.7025 19.1694 15.5131 19.1703 15.3662 19.0751C14.695 18.6399 15.2124 18.1153 15.6514 17.7607L16.2736 17.2614C17.5233 16.2342 18.6151 14.7941 18.6328 13.1283C18.6501 11.5053 17.5128 11.0519 16.2598 11.8779C15.2806 12.5234 14.8589 11.6536 15.2405 11.1873C15.6497 10.6872 16.5467 10.4043 17.1592 10.3389C17.914 10.2274 18.8276 10.5754 19.2909 11.1625C19.8648 11.8895 19.9557 12.9143 19.8364 13.7982C19.6467 15.204 18.8338 16.3326 17.8859 17.3508L17.3672 17.8661C17.3065 17.9253 17.2612 17.9923 17.1927 18.0431L19.3515 18.0548C20.178 18.0577 20.194 18.8476 19.6625 19.1109L19.6359 19.1237C19.3615 19.2588 18.8144 19.1757 18.5064 19.1757L16.4746 19.1748Z" fill="#FFA500"/>
</svg>
