<svg width="60" height="60" viewBox="0 0 40 40" fill="none" xmlns="http://www.w3.org/2000/svg">
<path d="M32.1989 35.9918L5.14147 35.9981C3.60505 36.0064 2.21681 34.7579 2.02547 33.1544C2.00029 32.9434 2.00439 32.7242 2.00408 32.5119L2.00258 7.92079C2.00281 7.57365 1.98591 7.21427 2.03572 6.87008C2.24918 5.39491 3.34949 4.225 4.78494 4.03971C5.19914 3.98624 5.62084 4.00245 6.03745 4.00188L34.2592 4.00246C34.7261 4.00355 35.1653 4.0103 35.6186 4.13912C37.0886 4.55688 37.9155 5.89128 37.9231 7.42117L37.9251 32.2382C37.925 32.5408 37.9446 32.8602 37.9045 33.1598C37.7045 34.652 36.5685 35.7672 35.1387 35.965C34.7364 36.0207 34.3112 35.9932 33.9054 35.9933L32.1989 35.9918ZM5.50858 5.1701C3.84324 5.17729 3.15102 6.00977 3.14661 7.77648L3.1447 9.49357C3.14473 9.57034 3.13401 9.66597 3.1516 9.7405L36.7943 9.76656L36.7937 8.20178C36.7932 7.59316 36.8444 6.94148 36.5849 6.37531C36.1666 5.46303 35.3389 5.17653 34.4278 5.17037L5.50858 5.1701ZM36.7909 10.9002L3.14722 10.9248L3.14717 32.2703C3.14779 33.0392 3.1551 33.5946 3.72844 34.1884L3.74421 34.2046C4.48928 34.9123 5.13208 34.8356 6.07552 34.8359L34.7338 34.8279C35.0337 34.8134 35.3465 34.7411 35.6213 34.6111C36.5941 34.1507 36.7929 33.372 36.7946 32.3872L36.7909 10.9002Z" fill="#FFA500"/>
<path d="M8.96394 9.61056C6.23702 9.74441 6.00565 5.96741 8.54386 5.7097C11.0326 5.33241 11.6205 9.26293 8.96394 9.61056ZM8.57174 6.85317C7.52428 7.08812 7.91747 8.65492 8.93767 8.42705C9.93269 8.07287 9.63476 6.7648 8.57174 6.85317Z" fill="#FFA500"/>
<path d="M22.4181 8.49123C21.1104 8.47745 20.9622 6.74981 22.3273 6.52696C23.5335 6.48686 23.7636 8.33526 22.4181 8.49123Z" fill="#FFA500"/>
<path d="M17.6699 8.48662C16.3291 8.597 16.2176 6.68913 17.4867 6.52975C17.9902 6.49059 18.4526 6.78775 18.5414 7.32967L18.5467 7.36429C18.6461 7.98073 18.2287 8.3887 17.6699 8.48662Z" fill="#FFA500"/>
<path d="M20.005 8.49123C18.4893 8.44494 18.4322 6.73703 19.9694 6.53253L19.9885 6.53044C21.3541 6.42385 21.545 8.41993 20.005 8.49123Z" fill="#FFA500"/>
<path d="M33.0564 14.3794L31.0007 14.3749C29.35 14.3003 29.4181 12.102 31.0124 11.8792C31.1959 11.8535 31.3977 11.863 31.5837 11.8596L33.4713 11.8628C34.8607 11.8968 35.4123 13.6832 34.0829 14.2879C33.7845 14.4236 33.3803 14.3787 33.0564 14.3794ZM31.2505 13.0007C31.063 13.0277 31.0114 13.0505 31.0218 13.2348C31.1392 13.3343 31.5961 13.2935 31.7587 13.2937L33.4463 13.294C33.5129 13.2862 33.5717 13.2914 33.6236 13.2489C33.6298 12.8671 32.9506 12.9969 32.6911 12.9965L31.2505 13.0007Z" fill="#FFA500"/>
<path d="M20.2312 32.6313C19.6974 32.6334 19.1878 32.6235 18.6583 32.5535C13.2444 31.8381 9.18012 26.3681 10.3388 20.7264C11.2816 16.1357 15.3104 12.7695 19.7938 12.7112L19.8565 12.7035C23.5891 12.6262 27.3857 15.0585 28.932 18.6161C31.8186 25.2573 27.04 32.4576 20.2312 32.6313ZM19.8241 13.8733C17.5374 13.89 15.2371 15.0176 13.6385 16.7078C10.4128 20.118 10.5759 25.498 13.8366 28.853C15.5547 30.6208 17.7734 31.4933 20.1542 31.4856C25.4493 31.3745 29.7128 26.161 28.4212 20.7181C27.4385 16.5765 23.8262 13.9021 19.8241 13.8733Z" fill="#FFA500"/>
<path d="M20.107 29.821L19.9159 29.8245C16.404 29.8352 13.0549 27.0808 12.7002 23.4068C12.2858 19.1163 15.7758 15.5093 19.8793 15.5151C20.174 15.5066 20.4791 15.502 20.7721 15.5324C24.5424 15.9256 27.5607 19.4049 27.2397 23.3148C26.9353 27.0232 23.6433 29.7749 20.107 29.821ZM19.7876 16.6343C16.7839 16.793 14.5999 18.6946 13.9018 21.6554C14.4991 21.7031 15.0669 21.8002 15.6379 21.9943C16.1198 22.1581 16.5834 22.3718 17.0831 22.4763C17.9405 22.6554 19.1246 22.3347 19.8586 21.9043C20.3325 21.6354 20.7804 21.3173 21.2719 21.0822C22.5829 20.4552 24.1028 20.4489 25.4759 20.8607L25.8925 21.0132C24.9012 18.3604 22.6482 16.5256 19.7876 16.6343ZM23.2267 21.7386C22.1514 21.8676 21.5453 22.2476 20.6443 22.7902C19.6912 23.364 18.6784 23.6741 17.5719 23.6695C16.4339 23.6649 15.4325 23.0567 14.3205 22.8725C14.165 22.8468 13.975 22.8409 13.8264 22.7906C13.9027 24.9154 15.03 26.6792 16.788 27.7853C20.5852 30.0374 25.6164 27.7476 26.1084 23.1964L26.1406 22.3413C25.8652 22.2246 25.4557 22.0946 25.1667 21.9962C24.4993 21.7689 23.9229 21.7211 23.2267 21.7386Z" fill="#FFA500"/>
</svg>
