<svg width="60" height="60" viewBox="0 0 60 60" fill="none" xmlns="http://www.w3.org/2000/svg">
<path d="M48.2984 53.9877L7.71221 53.9971C5.40758 54.0096 3.32522 52.1369 3.0382 49.7315C3.00044 49.4151 3.00658 49.0863 3.00611 48.7678L3.00387 11.8812C3.00422 11.3605 2.97886 10.8214 3.05357 10.3051C3.37376 8.09236 5.02424 6.33749 7.17741 6.05957C7.79871 5.97937 8.43126 6.00367 9.05618 6.00281L51.3887 6.0037C52.0892 6.00532 52.748 6.01545 53.4279 6.20868C55.6329 6.83532 56.8733 8.83693 56.8846 11.1317L56.8876 48.3573C56.8875 48.8112 56.917 49.2903 56.8568 49.7398C56.5568 51.9779 54.8528 53.6507 52.708 53.9475C52.1047 54.031 51.4669 53.9898 50.8581 53.9899L48.2984 53.9877ZM8.26287 7.75515C5.76485 7.76594 4.72653 9.01466 4.71991 11.6647L4.71705 14.2404C4.71709 14.3555 4.70101 14.499 4.7274 14.6108L55.1915 14.6498L55.1906 12.3027C55.1897 11.3897 55.2666 10.4122 54.8773 9.56297C54.2499 8.19455 53.0083 7.76479 51.6416 7.75555L8.26287 7.75515ZM55.1864 16.3503L4.72084 16.3872L4.72076 48.4054C4.72168 49.5587 4.73265 50.392 5.59267 51.2826L5.61632 51.3068C6.73392 52.3685 7.69812 52.2535 9.11328 52.2538L52.1008 52.2419C52.5506 52.2201 53.0198 52.1116 53.432 51.9166C54.8911 51.226 55.1894 50.058 55.192 48.5808L55.1864 16.3503Z" fill="#FFA500"/>
<path d="M13.4459 14.4158C9.35553 14.6166 9.00848 8.95111 12.8158 8.56455C16.5489 7.99861 17.4308 13.8944 13.4459 14.4158ZM12.8576 10.2798C11.2864 10.6322 11.8762 12.9824 13.4065 12.6406C14.899 12.1093 14.4521 10.1472 12.8576 10.2798Z" fill="#FFA500"/>
<path d="M33.6272 12.7368C31.6656 12.7162 31.4434 10.1247 33.491 9.79044C35.3002 9.73029 35.6453 12.5029 33.6272 12.7368Z" fill="#FFA500"/>
<path d="M26.5049 12.7299C24.4937 12.8955 24.3265 10.0337 26.23 9.79463C26.9853 9.73589 27.6789 10.1816 27.812 10.9945L27.8201 11.0464C27.9691 11.9711 27.3431 12.5831 26.5049 12.7299Z" fill="#FFA500"/>
<path d="M30.0074 12.7368C27.7339 12.6674 27.6484 10.1055 29.954 9.7988L29.9828 9.79565C32.0311 9.63578 32.3175 12.6299 30.0074 12.7368Z" fill="#FFA500"/>
<path d="M49.5846 21.569L46.5011 21.5623C44.025 21.4505 44.1271 18.1531 46.5185 17.8187C46.7939 17.7803 47.0965 17.7945 47.3755 17.7895L50.2069 17.7941C52.2911 17.8452 53.1184 20.5248 51.1244 21.4318C50.6767 21.6354 50.0704 21.568 49.5846 21.569ZM46.8758 19.5011C46.5945 19.5416 46.5171 19.5758 46.5327 19.8521C46.7088 20.0014 47.3942 19.9402 47.6381 19.9406L50.1694 19.941C50.2693 19.9294 50.3575 19.9371 50.4355 19.8734C50.4447 19.3006 49.426 19.4953 49.0367 19.4947L46.8758 19.5011Z" fill="#FFA500"/>
<path d="M30.3467 48.947C29.5461 48.9501 28.7816 48.9352 27.9874 48.8302C19.8666 47.7571 13.7702 39.5521 15.5082 31.0897C16.9224 24.2036 22.9656 19.1542 29.6908 19.0669L29.7848 19.0553C35.3837 18.9393 41.0786 22.5877 43.398 27.9241C47.728 37.8859 40.5601 48.6863 30.3467 48.947ZM29.7362 20.81C26.306 20.835 22.8557 22.5264 20.4578 25.0617C15.6192 30.177 15.8638 38.2471 20.7549 43.2795C23.332 45.9312 26.66 47.24 30.2312 47.2285C38.1739 47.0618 44.5692 39.2415 42.6319 31.0772C41.1578 24.8648 35.7393 20.8531 29.7362 20.81Z" fill="#FFA500"/>
<path d="M30.1606 44.7315L29.8739 44.7368C24.6059 44.7529 19.5824 40.6212 19.0502 35.1102C18.4287 28.6745 23.6638 23.264 29.8189 23.2727C30.261 23.26 30.7187 23.253 31.1581 23.2987C36.8137 23.8884 41.3411 29.1074 40.8596 34.9722C40.4029 40.5347 35.465 44.6624 30.1606 44.7315ZM29.6814 24.9515C25.1758 25.1894 21.8999 28.0419 20.8527 32.4831C21.7486 32.5547 22.6004 32.7003 23.4568 32.9914C24.1797 33.2371 24.8751 33.5577 25.6247 33.7145C26.9108 33.9832 28.6869 33.502 29.7879 32.8565C30.4988 32.4531 31.1706 31.9759 31.9079 31.6233C33.8744 30.6829 36.1542 30.6733 38.2138 31.291L38.8387 31.5197C37.3518 27.5406 33.9723 24.7883 29.6814 24.9515ZM34.84 32.6079C33.2271 32.8013 32.318 33.3715 30.9664 34.1853C29.5368 35.046 28.0175 35.5111 26.3579 35.5043C24.6509 35.4973 23.1487 34.585 21.4807 34.3088C21.2475 34.2702 20.9625 34.2613 20.7397 34.1858C20.854 37.373 22.5451 40.0188 25.182 41.678C30.8778 45.0561 38.4247 41.6214 39.1627 34.7947L39.2109 33.5119C38.7978 33.3369 38.1835 33.1419 37.7501 32.9943C36.749 32.6533 35.8843 32.5817 34.84 32.6079Z" fill="#FFA500"/>
</svg>
