<svg width="60" height="60" viewBox="0 0 60 60" fill="none" xmlns="http://www.w3.org/2000/svg">
<path d="M32.0016 23.9616C30.4153 24.4493 28.6494 24.1316 27.4013 22.9883C26.6224 24.3093 23.3992 25.5959 22.0515 26.3574C23.0138 28.7405 23.0658 30.7351 22.233 33.105C21.4634 35.2951 20.1175 37.7817 17.5742 38.166C15.1322 38.535 13.2521 36.9663 12.1647 34.9418C10.7361 32.2819 10.1395 28.518 12.1052 25.9565C14.284 23.1172 18.1453 22.889 20.8974 25.0428L23.7705 23.5426C24.6612 23.0748 25.5254 22.6081 26.2064 21.8497C25.8576 21.1607 25.3901 20.5393 25.0356 19.8508C24.4922 18.7956 24.1299 17.6362 23.9032 16.4725C23.7747 15.8128 23.6607 15.1167 23.6481 14.4444L23.6492 13.2828C23.7556 9.22609 26.2805 5.88571 30.5573 6.003C35.7954 6.04841 37.9054 10.0786 37.4381 15.0061C37.2751 16.7244 36.8606 18.3575 36.083 19.9071C35.746 20.5785 35.288 21.1505 34.8996 21.7867C35.9287 23.1364 37.8213 23.7413 39.2706 24.4928C41.3085 20.6405 46.8577 20.2159 49.4431 23.8389C50.7217 25.6305 50.9366 27.93 50.5727 30.0503C50.0527 33.0803 47.8266 38.9148 43.8112 38.1805C40.9594 37.659 39.2265 33.6938 38.6096 31.0721C38.212 29.382 38.255 27.7322 38.5681 26.044C36.9206 25.272 34.9221 24.4902 33.7269 23.0446C33.1836 23.4399 32.63 23.7299 32.0016 23.9616ZM30.3174 7.72606C25.1727 8.05261 24.5829 13.3698 25.9028 17.4474C26.5447 19.4304 28.2752 22.6836 30.7833 22.4814L30.8463 22.4738C34.3055 21.9063 35.8082 16.7594 35.805 13.8012C35.8046 13.4133 35.8182 13.0002 35.7594 12.6161L35.6027 11.6707C35.0252 8.95313 33.0014 7.69468 30.3174 7.72606ZM44.2138 23.1493C39.0253 23.6831 39.5116 29.4127 41.0976 33.111C41.7543 34.6421 42.8684 36.71 44.8286 36.4931C46.5571 36.1428 47.7419 33.5119 48.2812 32.0188C48.865 30.4028 49.2771 28.5354 48.9247 26.8214C48.4886 24.7003 46.4536 22.7825 44.2138 23.1493ZM16.5586 25.3224C9.77084 25.9208 12.7601 36.9552 17.1333 36.5277C19.8476 36.0848 21.0789 32.2784 21.084 29.8131C21.0897 27.0141 19.3594 25.2005 16.5586 25.3224Z" fill="#FFA500"/>
<path d="M23.8932 54C23.2575 53.9986 22.7585 54.0108 22.1644 53.7523C21.0064 53.2484 19.968 52.0396 19.8357 50.7489C19.7411 49.8259 19.9617 47.4545 20.3742 46.5373L6.66668 46.5061C4.83228 46.5113 4.2596 46.7383 4.58745 44.4327C4.79708 42.9585 5.14494 41.4945 5.59031 40.0742C6.7301 36.4391 7.44099 36.1414 10.6445 34.655C11.2338 34.3815 11.8422 34.0414 12.4742 33.884C12.998 33.7536 13.1864 33.9045 13.508 34.2995C14.0133 34.9203 14.473 35.5042 15.1793 35.9185C17.0782 37.0324 18.9421 36.2283 20.1509 34.6157C20.3737 34.3185 21.0125 33.8251 21.0125 33.8251L21.0563 33.8146C21.5242 33.6943 22.426 34.2272 22.7319 34.6239L22.7597 34.6116C22.6684 32.9538 22.7611 31.108 23.2174 29.4992C24.1642 26.1611 26.9208 23.1754 30.5502 23.0046L30.6051 23.0034C34.3892 22.956 37.4456 26.1915 38.3135 29.6804C38.4747 30.3281 38.5359 30.9755 38.5849 31.6384L38.6971 34.7081C38.7806 34.6092 38.8608 34.5968 38.9583 34.5274C40.5796 33.3738 41.0054 33.5666 42.2705 35.075C43.925 37.0479 45.4768 37.0576 47.032 34.9965C48.1869 33.4658 48.3242 33.4733 50.1361 34.2429L51.6793 34.9271C54.8525 36.4038 55.9797 37.6158 56.6329 41.0379C56.8003 41.9147 56.9132 42.8068 56.9564 43.6988L56.978 45.0606C56.9911 46.9058 56.1234 46.5035 54.6468 46.5028L40.9693 46.5075C41.2585 46.9701 41.5411 49.7342 41.5401 50.3138C41.5361 52.5604 39.6751 53.9897 37.5424 53.9984L23.8932 54ZM30.2708 24.7664C28.6964 24.9387 27.4327 25.7701 26.4511 26.9897C24.9723 28.827 24.7172 30.1733 24.4987 32.3981C24.4172 33.2273 24.3475 34.132 24.4397 34.9632C24.5298 35.7772 24.9978 35.9469 25.7698 35.9363C24.8959 34.2473 24.2859 30.7869 26.3706 29.7276C26.8868 29.4654 27.5019 29.4175 28.0522 29.2473C29.3047 28.86 30.5318 28.2459 31.6121 27.5065C33.5778 26.2968 33.8228 28.4159 34.8346 29.4905C35.222 29.902 35.7836 30.2592 36.0873 30.7304C36.7516 31.7609 36.1803 34.784 35.5705 35.9815C36.1044 35.912 36.5402 35.8772 36.9504 35.4978C37.003 35.2874 36.998 35.062 37 34.8462L36.9142 31.7673C36.666 28.7801 35.0058 25.6384 31.902 24.8781C31.3689 24.7475 30.8166 24.7335 30.2708 24.7664ZM32.3752 29.0351C31.6591 29.6253 30.9368 29.9696 30.0733 30.3013L28.1908 30.9828C27.5049 31.2185 26.7405 31.2295 26.6554 32.0751C26.4683 33.9366 27.6374 37.0428 29.3699 37.9911C32.4888 39.531 34.7016 35.1501 34.709 32.6153C34.7127 31.3419 33.9353 31.1124 33.2389 30.2497C32.9336 29.8715 32.6855 29.4487 32.4418 29.0295L32.3752 29.0351ZM40.361 35.5436C39.1309 36.7076 37.2805 37.624 35.5718 37.6532C34.6822 37.6684 35.0487 37.7031 34.3954 38.3258C33.6588 39.0281 32.8078 39.63 31.808 39.8836L31.1108 40.0033C29.5019 40.2036 28.0584 39.3791 26.9822 38.2565L26.6318 37.8771C26.3971 37.6201 25.4605 37.6658 25.0973 37.6045C23.7396 37.3754 22.5407 36.4962 21.4516 35.6983C19.1961 38.9509 14.7411 38.921 12.4451 35.6667C11.2139 36.3936 9.58504 36.7196 8.56106 37.7477C7.33918 38.9744 6.47519 42.8493 6.32964 44.4605C6.32117 44.5542 6.28396 44.7257 6.31186 44.8109L21.0028 44.8153C21.0789 44.701 21.0857 44.5851 21.1307 44.4599C21.4272 43.6371 21.9527 42.82 22.47 42.1249C23.2722 41.112 25.9626 37.8171 27.3113 37.6532C28.7429 37.4793 28.0295 37.7126 28.832 38.5906C30.2463 40.1377 31.1 39.9177 32.471 38.3258C32.7247 38.0312 33.4661 38.5498 33.7201 38.2565C35.6012 36.085 38.9108 41.923 39.7569 43.4687L40.1802 44.3226C40.2478 44.4726 40.288 44.7038 40.3948 44.8178L55.3135 44.809C55.1069 38.7632 54.2145 37.5892 48.7621 35.5512C45.9384 39.3938 43.3822 39.0885 40.361 35.5436ZM33.5572 38.2565C33.3741 38.5398 32.8927 38.3218 32.6882 38.5906C31.808 39.082 31.4933 40.1656 29.3699 39.5139L28.832 39.2966C28.832 38.3258 28.3903 38.9205 28.1803 38.9708C26.01 39.4907 22.2786 45.7555 21.8407 47.6623C21.6375 48.5471 21.3364 49.8746 21.5724 50.7734C21.7942 51.618 22.5425 52.2267 23.4014 52.2851L37.8361 52.2879C39.3155 52.2092 39.9417 51.1424 39.8702 49.801C39.7264 47.1014 35.8223 39.5648 33.2856 38.5906L33.5572 38.2565Z" fill="#FFA500"/>
</svg>
