<svg width="60" height="60" viewBox="0 0 60 60" fill="none" xmlns="http://www.w3.org/2000/svg">
<path d="M30.0492 40.9719C29.6296 41.0221 29.2254 40.8623 28.8365 40.7257L21.7005 53.3094C21.3991 53.8102 21.0713 54.4682 20.4591 54.6318C19.8261 54.8011 18.9865 54.4273 18.6714 53.8505C18.4821 53.5039 18.428 53.0704 18.3586 52.6863L18.0202 50.5433C17.7787 48.8656 17.8341 48.2319 16.0246 48.6022L14.2698 48.9747C13.5763 49.1001 12.8498 49.2399 12.2008 48.8785C11.4114 48.439 11.3383 47.5744 11.6792 46.8328C12.2119 45.6738 12.8841 44.5628 13.4829 43.4357L16.7277 37.3257C16.8876 37.033 17.6828 35.7461 17.5725 35.6545L17.3814 35.4901C16.4539 34.6501 16.2121 33.4179 15.4988 32.4352C15.309 32.1738 15.0752 31.9405 14.8588 31.7007C13.2073 29.8713 13.0344 28.9209 13.13 26.6254C13.1793 25.4396 12.9734 25.2384 12.5411 24.1756C11.824 22.4125 12.0896 20.5706 13.0945 18.961C13.9516 17.5882 14.1323 17.1595 14.3434 15.5579C14.6313 13.3735 15.8135 11.8993 17.7439 10.9264C19.2369 10.174 19.1592 10.094 20.1651 8.82407C21.0483 7.70897 22.296 6.88341 23.7264 6.67797C24.5547 6.559 25.4415 6.82795 26.2484 6.58763C27.4749 6.2223 27.9647 5.50527 29.4444 5.33227C30.8866 5.15586 31.7841 5.86906 32.96 6.43843C33.469 6.68488 33.9235 6.66734 34.4803 6.65926L35.6275 6.65859C37.2548 6.70978 38.6377 7.9065 39.5756 9.1288C40.5618 10.4142 41.0597 10.4729 42.4203 11.2615C43.8662 12.0995 44.8613 13.5318 45.1315 15.1897C45.2975 16.2085 45.3715 17.1468 45.8712 18.0743C46.0741 18.4507 46.329 18.7961 46.5491 19.1622C47.4783 20.7077 47.6748 22.5806 46.9466 24.2561C46.4718 25.3485 46.3169 25.5508 46.3888 26.7476C46.5056 28.6921 46.3412 29.7863 44.9447 31.3732C44.5912 31.775 44.1665 32.1608 43.88 32.6129C43.46 33.2753 43.297 34.053 42.8293 34.6987C42.5624 35.0672 42.2341 35.3813 41.8995 35.6868L47.6547 46.4364C47.9341 47.0016 48.1233 47.4981 47.905 48.1266C47.2902 49.896 44.5275 48.7415 43.1404 48.5554C41.649 48.3551 41.7036 49.0834 41.5266 50.3511L41.274 52.0384C41.1389 52.9015 41.0446 54.0791 40.1536 54.5116C38.7563 55.1897 38.0894 53.8451 37.4993 52.8362L30.7061 40.7326C30.4891 40.8369 30.2836 40.9151 30.0492 40.9719ZM29.5061 6.93823C28.4553 7.04325 27.7062 7.74693 26.7256 8.03488C25.8365 8.29596 24.9928 8.11817 24.0951 8.19652C21.7214 8.40373 21.28 10.4276 19.7256 11.5713C19.1711 11.9793 18.5266 12.2342 17.9366 12.582C16.9793 13.1464 16.1372 14.1131 15.9359 15.2303C15.6638 16.741 15.7507 17.6168 14.8498 19.102C14.4944 19.6881 14.0495 20.2422 13.8502 20.9067C13.4056 22.3888 13.7797 23.0172 14.32 24.3078C14.7948 25.4421 14.7205 26.0915 14.6238 27.2632C14.4307 29.6023 15.8246 30.0943 16.8229 31.6457C17.3251 32.4261 17.5579 33.4164 18.1921 34.1037C18.9137 34.8857 20.0181 35.1589 20.8393 35.8115C21.7469 36.5328 22.2454 37.6186 23.3248 38.1542C24.538 38.7562 25.6717 38.1909 26.8863 38.3967C27.9056 38.5693 29.1315 39.3631 30.0551 39.2431C30.9333 39.0948 31.6964 38.5965 32.5744 38.4182C34.1005 38.1083 35.2152 38.9804 36.7575 37.8463C37.5608 37.2555 37.9869 36.3079 38.8267 35.7303C39.8006 35.0602 40.9002 34.7463 41.6184 33.7433C42.0771 33.1026 42.2523 32.2931 42.6957 31.6289C43.9554 29.7417 45.0288 29.7452 44.8666 27.1051C44.8022 26.0585 44.8352 25.0728 45.2877 24.1048C46.2415 22.0644 45.9856 21.1766 44.8344 19.3483C44.2455 18.4131 43.8612 17.4875 43.7062 16.3873C43.5111 15.0033 43.4786 13.8726 42.1371 12.927C40.9141 12.0647 39.8817 11.9119 38.7669 10.5688C37.9406 9.57341 37.4066 8.71983 36.0935 8.31074C35.3689 8.08502 34.6088 8.24259 33.8654 8.20545C32.227 8.1236 31.0594 6.75341 29.5061 6.93823ZM18.9951 36.4484L13.8825 45.958C13.5888 46.4951 13.2943 47.0293 13.0819 47.6052C14.0105 47.5601 14.9273 47.2269 15.8394 47.053C17.1999 46.7938 18.6505 47.058 19.2223 48.5194C19.425 49.0376 19.436 49.6403 19.5229 50.187L19.9826 52.8476C20.0797 53.3108 20.2252 52.8461 20.401 52.5451L26.6916 41.3942C26.9273 40.969 27.1955 40.5194 27.3747 40.0673C26.9644 39.9184 26.5085 39.9545 26.0787 39.9698L24.9988 39.9823C23.3428 39.9937 22.1116 39.5257 20.9736 38.2402C20.1839 37.348 20.026 37.1134 18.9951 36.4484ZM40.5288 36.4976C38.5365 37.5491 38.1524 39.6976 35.4654 39.9664C34.5789 40.055 32.8957 39.7326 32.1598 40.0788L39.1403 52.6156L39.4575 53.1053C39.6131 52.6816 39.6672 52.2385 39.7392 51.7949L40.0132 49.9756C40.1924 48.6813 40.2588 47.818 41.5608 47.2155C42.4503 46.8039 43.2809 46.9776 44.1968 47.1744L45.5102 47.4442C45.8345 47.5082 46.1594 47.5778 46.4898 47.601L40.5288 36.4976Z" fill="#FFA500"/>
<path d="M30.4581 35.9221C29.8428 35.9471 29.1999 35.9586 28.5868 35.9049C22.2895 35.3529 17.3306 30.3254 16.8958 23.9894C16.4063 16.8551 21.9817 10.6999 29.1056 10.2981C29.6841 10.2851 30.2675 10.2682 30.8441 10.3219C36.6825 10.8654 41.3275 15.1077 42.4389 20.8616C43.9002 28.4269 38.1134 35.6164 30.4581 35.9221ZM29.2073 11.8486C21.8629 12.3383 16.6287 19.4695 18.9666 26.5576C20.6563 31.6805 25.1363 34.57 30.4086 34.3798C37.4902 33.9864 42.7673 26.973 40.6624 20.1105C39.2679 15.5636 35.4325 12.2198 30.5996 11.8605C30.1414 11.8264 29.6667 11.8382 29.2073 11.8486Z" fill="#FFA500"/>
<path d="M33.9468 28.9552C31.5636 28.8862 30.7988 27.1547 30.5076 25.0036L30.3987 24.1096C30.2619 22.2152 30.3134 19.1013 31.548 17.7019C32.1256 17.0471 32.8971 16.7539 33.7499 16.6965C36.5477 16.6155 37.1612 19.7288 37.2828 21.938L37.2987 23.2083C37.2952 25.5834 36.911 28.8029 33.9468 28.9552ZM33.7018 18.2731C31.7678 18.6358 32.0269 21.5046 32.0287 23.0373C32.0302 24.4886 32.0501 27.4173 34.0015 27.4109C35.79 27.2224 35.6027 24.1503 35.6022 22.852C35.6018 21.6191 35.7365 18.0158 33.7018 18.2731Z" fill="#FFA500"/>
<path d="M24.2993 28.8679L23.4863 28.8652C23.2551 28.8605 22.9989 28.8618 22.8003 28.7312C21.8925 28.1341 22.5923 27.4143 23.1859 26.9279L24.0274 26.2429C25.7174 24.8335 27.1939 22.8578 27.2179 20.5724C27.2414 18.3457 25.7033 17.7237 24.0088 18.8569C22.6845 19.7425 22.1142 18.5492 22.6303 17.9094C23.1836 17.2233 24.3967 16.8353 25.2251 16.7455C26.2459 16.5925 27.4813 17.07 28.1079 17.8754C28.884 18.8729 29.0069 20.2789 28.8457 21.4915C28.5891 23.4202 27.4898 24.9686 26.2078 26.3655L25.5063 27.0725C25.4242 27.1538 25.3629 27.2457 25.2704 27.3153L28.1899 27.3313C29.3076 27.3353 29.3292 28.419 28.6105 28.7803L28.5744 28.7979C28.2033 28.9832 27.4635 28.8691 27.047 28.8691L24.2993 28.8679Z" fill="#FFA500"/>
</svg>
