<svg width="60" height="60" viewBox="0 0 60 60" fill="none" xmlns="http://www.w3.org/2000/svg">
<path d="M35.287 47.1856C34.2611 48.1456 31.5515 50.3286 30.0595 50.5536C28.6339 50.7685 24.6232 47.2909 23.704 46.412L22.636 45.3551C22.3521 45.0679 22.0703 44.763 21.7356 44.5287C20.9193 44.6028 20.1127 44.8134 19.3308 45.0434L17.1296 45.7553C13.637 46.983 10.2539 48.6131 9.50309 52.3945L9.38745 53.1915C9.20251 54.3073 7.87186 54.1953 7.71479 53.3005C7.51971 52.1889 8.64511 49.6091 9.27582 48.7539C11.2393 46.0917 15.4098 44.4453 18.649 43.557L20.1685 43.1817C20.6808 43.0747 21.2799 43.0273 21.7557 42.8172C23.0647 42.2392 23.6305 40.4586 23.9035 39.2405C24.3209 37.3784 22.7247 38.8022 21.664 37.6761C21.2984 37.2879 21.4524 37.3266 20.8978 37.3389L19.6871 37.3646C19.4498 37.3691 19.2032 37.3865 18.9673 37.3629C16.3571 37.1034 15.0717 34.5592 14.957 32.2906L14.8972 32.2736C13.5791 31.9711 12.7694 30.2893 12.6228 29.1266C12.5058 28.1988 12.5373 25.858 12.6747 24.997C12.8648 23.8059 13.8581 22.5278 15.0713 22.1628C15.4905 22.0367 15.321 21.9481 15.317 21.5395C15.3062 20.4376 15.3058 19.401 15.5103 18.3142C16.6964 12.011 22.1669 6.36628 29.1065 6.01804L29.5577 6.00402C30.1472 6.00118 30.75 5.98514 31.3363 6.04592C38.6505 6.80404 43.863 12.9364 44.5241 19.7138C44.5998 20.49 44.561 21.2958 44.5635 22.0761C44.6827 22.1295 44.8105 22.144 44.9345 22.1839C45.8446 22.4755 46.663 23.4628 46.9871 24.2784C47.1939 24.7988 47.2316 25.3728 47.2476 25.9229L47.2599 27.5214C47.2589 28.8726 47.2275 30.4218 46.1811 31.4642C45.5299 32.1129 44.3982 32.6157 43.4359 32.6329C42.9781 32.6411 42.521 32.4536 42.1032 32.292C41.0187 31.8728 41.287 31.4877 41.4454 30.5601L41.8087 27.6623L41.8264 24.9907C41.6265 25.1398 41.324 25.1463 41.0996 25.2933C41.4616 30.1729 39.4733 35.6282 36.3467 39.4446C36.0998 39.746 36.2214 39.8284 36.2891 40.1902C36.6315 42.0216 37.4251 42.7269 39.2159 43.0763L40.5182 43.3591C41.4667 43.6084 42.3947 43.9263 43.3163 44.2532C47.5645 45.7601 51.0857 47.6383 52.0141 52.1567C52.0872 52.5126 52.1812 52.9098 52.1541 53.2733C52.0912 54.1183 50.8833 54.2436 50.5541 53.4887C50.4175 53.1754 50.4325 52.7514 50.3712 52.4145C49.6683 48.5488 46.0078 46.8713 42.4793 45.6579C40.9975 45.1482 39.5665 44.725 38.0034 44.5349C37.7264 44.743 37.4705 45.061 37.2222 45.3065L35.287 47.1856ZM29.7277 7.60081C22.6375 7.59585 17.0145 14.2099 17.0121 20.7197C17.012 21.0374 16.9286 21.7375 17.1745 21.9679C17.3752 22.156 18.0904 21.9944 18.2903 21.7943C18.38 21.7045 18.3448 21.1351 18.3475 20.9872C18.4515 15.2199 22.869 10.8709 28.8044 10.4794L30.2576 10.4583C32.0754 10.4925 33.9666 10.8383 35.5976 11.6263C39.015 13.2775 41.2852 16.9012 41.4772 20.5278L41.5029 21.3974C41.5088 21.4992 41.5084 21.6234 41.5794 21.7033L41.6012 21.7294C41.754 21.9089 42.0098 22.034 42.2511 22.0566C42.89 22.1166 42.897 21.82 42.8953 21.2771L42.8095 19.5337C42.7028 18.8963 42.6132 18.2759 42.4437 17.6478C41.1347 12.7965 37.2208 8.72959 31.9879 7.77246C31.262 7.63969 30.469 7.55298 29.7277 7.60081ZM29.3464 12.0829C26.3714 12.1763 23.7143 13.3062 21.9087 15.6455C21.0961 16.6986 20.1673 18.9142 20.0788 20.2874C20.5793 20.0205 21.0348 19.7 21.5509 19.4529C24.5694 18.0075 27.3102 17.6969 30.5809 17.7024C33.8218 17.7382 37.094 18.5843 39.7905 20.3177C38.9622 14.8309 35.0593 11.8904 29.3464 12.0829ZM29.6798 19.3541C25.6676 19.3272 22.4332 20.3553 19.4797 22.8787L18.6696 23.5757C19.7411 23.9081 21.7019 24.4505 22.8311 24.1082L23.5687 23.9024C26.0876 23.0939 27.4602 22.7228 30.2453 22.7296C31.9111 22.7322 33.5692 23.0011 35.1545 23.493L36.3588 23.9053C38.1522 24.5464 39.3489 24.1629 41.1422 23.5998L41.1543 23.5844C40.6169 23.127 40.1296 22.6228 39.5664 22.1916C36.9114 20.1593 33.5545 19.3697 30.209 19.3475C30.0592 19.3466 29.8481 19.3186 29.7039 19.3458L29.6798 19.3541ZM16.1981 23.5361C14.0145 24.0079 14.2697 25.6011 14.2722 27.3117C14.2739 28.4467 14.1318 29.8526 15.2211 30.6067C15.356 30.6818 15.4743 30.7306 15.6235 30.7768L15.6654 30.7907C15.9498 30.8802 16.3345 30.8499 16.6373 30.8573C16.5548 29.9782 16.3525 29.1113 16.2792 28.23L16.1992 24.7664C16.2215 24.3558 16.3174 23.9534 16.3405 23.5445C16.2842 23.5191 16.2588 23.5305 16.1981 23.5361ZM43.4534 23.6024C43.5965 25.0709 43.6074 26.9095 43.4698 28.3793L43.1841 30.8646C43.7902 30.9126 44.296 30.8583 44.7944 30.5119C45.3998 30.0082 45.4947 29.3811 45.5468 28.654L45.5821 26.9461C45.581 25.5206 45.6454 23.701 43.5825 23.606L43.4534 23.6024ZM29.5883 24.347C28.3705 24.3958 27.171 24.5379 25.9909 24.8379C23.8224 25.3891 22.7646 26.0584 20.415 25.7833L20.4363 27.4717C20.5998 30.0794 21.4196 32.6838 22.4067 35.1026L22.8353 36.1392C22.8889 36.2729 22.93 36.4677 23.0128 36.5825C23.1739 36.5944 24.4818 36.783 24.5136 36.7751C24.9526 35.8369 25.6384 35.1922 26.777 35.702L27.6845 36.1454C28.307 36.4273 29.074 36.6612 29.6124 37.0696C31.0371 38.15 29.5244 41.497 26.3431 39.891L25.7846 39.5804L25.5024 39.4349C25.5261 39.6393 25.6335 39.7545 25.7958 39.8803C27.0726 40.8697 29.2277 41.122 30.7919 40.9285L30.8909 40.9092C33.1867 40.4244 33.6664 40.1904 35.1941 38.2356L36.1856 36.8989C38.4414 33.5986 39.4474 29.6854 39.4365 25.7767L39.4102 25.7833C37.9256 26.1375 36.3475 25.635 34.9753 25.1524C33.2406 24.5425 31.4345 24.3211 29.5883 24.347ZM17.84 24.8627C17.9582 26.0566 17.8741 27.1867 18.0037 28.4245L18.2691 30.2975C18.4234 31.2202 18.8473 32.3809 17.3736 32.4359L16.6579 32.4235C16.7945 33.8563 17.4073 35.4269 19.087 35.6562C19.6278 35.7785 20.2769 35.7522 20.8295 35.7363L20.8049 35.6997C20.7381 35.5942 20.729 35.4401 20.6883 35.3222L20.3893 34.5226C19.3791 31.812 18.7574 29.4653 18.7591 26.5993L18.7628 25.3961C18.7639 25.3589 18.7825 25.3103 18.7447 25.2952L17.84 24.8627ZM26.1943 37.1982C26.087 37.3935 25.9837 37.5916 25.9636 37.8147C26.0904 38.1684 27.6718 38.8596 28.134 38.7088L28.2047 38.684C28.3477 38.5861 28.4102 38.4917 28.4942 38.3482C28.2161 38.1433 26.5731 37.3244 26.1943 37.1982ZM24.9596 41.2982C24.6247 42.2616 24.1013 42.9723 23.3288 43.6592C25.2098 45.6135 27.3699 47.813 29.9338 48.9619C31.2427 48.3438 32.5542 47.3742 33.6306 46.4536L36.4311 43.7029C36.4041 43.6416 36.3281 43.5954 36.2768 43.5507C35.6151 42.9751 35.1265 42.1399 34.8703 41.331C32.2556 42.5975 29.5806 43.0026 26.7776 42.1266C26.1425 41.9282 25.504 41.6749 24.9596 41.2982Z" fill="#FFA500"/>
</svg>
