<svg width="60" height="60" viewBox="0 0 60 60" fill="none" xmlns="http://www.w3.org/2000/svg">
<path d="M17.3884 16.8205C16.2287 16.9014 15.4239 16.1551 15.2058 15.0543L15.1619 14.7716C15.0892 14.2771 15.1124 13.7539 15.1103 13.2545L15.108 8.68068C15.1084 8.18587 15.0815 7.67424 15.1569 7.18448C15.3053 6.22011 16.128 5.45869 17.083 5.33117C18.2784 5.25589 19.1431 6.39539 19.2813 7.49178C19.333 7.9022 19.3167 8.32369 19.3169 8.7368L19.3172 14.6533C19.2688 15.7552 18.4341 16.5684 17.3884 16.8205ZM17.0255 7.13431C16.6842 7.40669 16.8265 7.89839 16.8297 8.28856L16.8485 14.6007C16.8649 14.9286 17.013 15.1145 17.366 14.9821C17.526 14.8336 17.5816 14.676 17.5894 14.4628L17.5919 8.61173C17.5914 8.24757 17.7342 6.9155 17.0255 7.13431Z" fill="#FFA500"/>
<path d="M44.2132 16.8133C43.4774 16.8071 42.7475 16.3726 42.3863 15.7325C41.881 14.8369 42.1002 12.8079 42.0999 11.7648L42.1026 8.10208C42.1123 6.79722 42.7168 5.4737 44.1765 5.3329C45.2958 5.25297 46.2332 6.37426 46.2769 7.43721L46.289 13.9459C46.2898 14.2979 46.3373 14.7517 46.2408 15.0887C45.9719 16.0271 45.2175 16.7514 44.2132 16.8133ZM44.1257 7.18965C43.8563 7.30522 43.8447 7.71772 43.8319 7.9651L43.8231 13.4242C43.8231 13.7888 43.6233 15.0948 44.2788 14.9561C44.7587 14.7229 44.5965 13.9467 44.5965 13.5224L44.5839 7.68469C44.5704 7.35655 44.4856 7.13344 44.1257 7.18965Z" fill="#FFA500"/>
<path d="M40.3463 11.8777L23.1142 11.8831C22.4708 11.8835 19.7561 11.9297 19.1164 11.8831C18.2603 11.8208 17.1272 10.2865 18.8397 10.1704H42.47C43.2948 10.1993 43.3805 11.0453 42.9127 11.6861C42.7223 11.9468 40.6462 11.8339 40.3463 11.8777Z" fill="#FFA500"/>
<path d="M52.181 40.6641C51.8274 41.2991 51.3715 41.894 50.9653 42.4968L44.9639 51.1581C44.0663 52.3265 43.5579 53.1422 41.8284 53.2824C41.1736 53.3355 40.5078 53.3148 39.8511 53.3157L14.1702 53.3153C13.5335 53.3153 12.801 53.3777 12.1791 53.2219C8.87913 52.3948 8.29574 50.1891 8.29056 47.0338L8.28788 16.8719C8.28771 16.1656 8.24117 15.4245 8.30449 14.7234C8.51092 12.438 10.3117 10.5501 12.6014 10.2589L12.8629 10.2472C13.0906 10.2472 13.4163 10.2589 13.693 10.2589L15.3532 10.2589C15.7802 10.381 15.8513 10.7453 15.8513 11.52C15.8513 12.2948 15.2979 11.9074 12.6311 12.0399C11.098 12.291 10.0429 13.6782 10.0099 15.1881L10.0055 16.3332C10.0056 16.9183 9.98331 17.5142 10.0213 18.0977L51.3594 18.1081L51.364 16.3026C51.3624 14.4087 51.194 12.4335 48.8895 12.0181C46.0118 12.0181 45.8934 12.0487 45.5691 11.9074C44.9116 11.621 45.3477 10.8949 45.4584 10.2472C46.0118 10.2144 47.838 10.2057 48.3935 10.2144C50.7384 10.2513 52.9744 12.3859 53.0813 14.7214L53.0908 36.5628C53.0887 38.0753 52.9107 39.2819 52.181 40.6641ZM10.0054 19.8206L10.0067 47.6989C10.0089 48.4096 10.0243 49.0488 10.2908 49.7171C10.657 50.6355 11.6392 51.454 12.641 51.5791C13.1547 51.6435 13.7012 51.6096 14.2192 51.6096L40.9952 51.616C41.225 51.6171 41.4573 51.6306 41.6814 51.5732L41.7118 51.5659C42.348 51.3953 42.7868 50.9089 42.9011 50.2786L43.3734 47.1869C43.6957 44.8571 44.0933 42.5112 45.9296 40.8531C46.9194 39.9592 48.1555 39.4085 49.4765 39.2395L50.3821 39.1674C50.7552 39.1534 50.8898 39.2509 51.0722 38.892C51.2215 38.5983 51.3322 38.2505 51.3509 37.9209L51.3663 20.3877C51.3674 20.2047 51.3955 19.9983 51.3762 19.8183L10.0054 19.8206ZM49.8928 40.9749C46.5302 41.4876 45.7993 43.3628 45.2397 46.3816L44.9373 48.3075L49.9366 41.0026C49.9224 40.993 49.9084 40.9824 49.8928 40.9749Z" fill="#FFA500"/>
<path d="M30.9385 46.385C29.7375 46.4229 28.5561 46.11 28.2833 44.7808C28.0327 43.56 28.0572 43.5733 26.7199 43.1605C25.848 42.8914 25.9044 43.0575 25.207 43.5853C23.4128 44.9433 20.3806 41.641 21.8379 39.6603C22.534 38.7141 22.5775 39.0501 22.0906 37.8467C21.9042 37.3859 21.8557 37.0618 21.337 36.9441C19.7514 36.5845 18.9965 36.4067 18.8261 34.5407C18.7215 33.3953 19.267 32.3023 20.3477 31.8391C21.662 31.276 21.5672 32.0239 22.1304 30.5508L22.3452 30.0515C22.5064 29.6898 22.0096 29.3266 21.8289 29.0353C20.8842 27.5127 22.4527 25.2903 24.1374 25.1665C24.8815 25.1118 25.4426 25.583 25.9725 26.033C26.3283 26.3353 27.786 25.9141 28.1053 25.5749C28.4906 25.1657 27.9711 23.1578 30.5888 22.9592C31.8152 22.9052 32.8681 23.4895 33.1726 24.7478C33.226 24.968 33.2534 25.2173 33.3327 25.4288C33.5007 25.8765 34.9656 26.3745 35.422 26.099C35.6824 25.9418 35.9033 25.7082 36.155 25.5348C37.6212 24.5246 39.2008 25.8015 39.7122 27.2377C40.1796 28.5503 39.4859 28.8264 38.9902 29.8857C39.1028 30.3097 39.5113 31.3308 39.8449 31.6306C40.0291 31.7962 40.5577 31.7555 40.8108 31.8065C42.8943 32.2264 43.5147 36.1916 40.7765 36.7998L40.0548 36.9337C39.6008 37.0372 38.9702 38.5804 38.9926 38.9433C39.0015 39.0863 39.6881 39.8202 39.8122 40.0233C40.9476 41.8781 37.9341 44.9188 35.9541 43.4671C35.7669 43.3298 35.6074 43.1608 35.415 43.0294C34.7204 43.1096 34.179 43.2875 33.5744 43.6449C33.276 43.8213 33.2775 43.8036 33.2405 44.1343C33.0768 45.5933 32.4436 46.2653 30.9385 46.385ZM30.3049 24.8415L30.0262 24.8664C29.9732 24.9401 29.9638 25.0396 29.9438 25.1269L29.8008 25.7143C29.6964 26.0752 29.5509 26.4189 29.3075 26.7091C28.6693 27.4701 26.8654 28.0996 25.8361 27.8647C25.2586 27.7329 24.452 26.9795 24.25 26.9553C24.0488 26.9312 23.4151 27.5318 23.2944 27.6962L23.2132 27.8116C23.4651 28.3748 23.9476 28.8098 24.0633 29.4374C24.1703 30.0182 23.9732 30.6581 23.7686 31.1955C23.0786 33.0088 22.656 33.161 20.9364 33.4498C20.427 33.5352 20.6218 34.7001 20.7175 35.0515C21.0232 35.1574 21.3346 35.1547 21.6482 35.2132C22.5837 35.388 23.1288 36.0403 23.5219 36.8516C24.0613 37.9646 24.4099 38.9325 23.7416 40.0468C23.6656 40.1737 23.1156 40.9199 23.118 41.0077C23.4206 41.4481 23.8178 41.8317 24.1936 42.2099C25.3978 40.9936 26.2664 40.9829 27.7563 41.6024C29.3268 42.2553 29.7114 42.93 30.0561 44.6126L31.0691 44.5929L31.4168 44.5623C31.7199 43.3967 31.8884 42.565 33.0452 41.8869C33.8305 41.4266 34.909 41.0322 35.8234 41.2812C36.403 41.439 36.7711 41.8679 37.2881 42.1288C37.6655 41.8168 38.0083 41.4004 38.3053 41.0097C37.7365 40.2693 37.181 39.6199 37.3019 38.6224C37.4452 37.4394 38.2842 35.6525 39.521 35.2547C40.6675 34.8861 41.0759 35.3565 40.7562 33.6723C39.4505 33.2177 38.6485 33.4249 37.8627 31.7848C37.504 31.036 37.1013 29.9611 37.3991 29.1369C37.5638 28.6807 37.9104 28.3044 38.1537 27.8895C37.9366 27.4842 37.6423 27.2005 37.2727 26.9289C36.471 27.4832 35.7612 28.0927 34.7146 27.903C33.3304 27.6521 31.9341 27.0248 31.5911 25.5249L31.5029 25.0511C31.4416 24.7468 30.5713 24.8241 30.3049 24.8415Z" fill="#FFA500"/>
</svg>
